<?xml version="1.0" encoding="UTF-8"?>
<!DOCTYPE svg PUBLIC "-//W3C//DTD SVG 1.1//EN" "http://www.w3.org/Graphics/SVG/1.1/DTD/svg11.dtd">
<svg xmlns="http://www.w3.org/2000/svg" version="1.1" width="192px" height="192px" style="shape-rendering:geometricPrecision; text-rendering:geometricPrecision; image-rendering:optimizeQuality; fill-rule:evenodd; clip-rule:evenodd" xmlns:xlink="http://www.w3.org/1999/xlink">
<g><path style="opacity:0.207" fill="#fbde07" d="M 38.5,-0.5 C 42.5,-0.5 46.5,-0.5 50.5,-0.5C 51.6244,2.0417 52.4577,4.70836 53,7.5C 54.3024,8.0848 55.469,8.75147 56.5,9.5C 55.209,9.26269 54.209,9.59603 53.5,10.5C 52.8333,10.5 52.5,10.8333 52.5,11.5C 52.1667,11.5 51.8333,11.5 51.5,11.5C 50.5,11.8333 49.8333,12.5 49.5,13.5C 47.6889,12.178 45.6889,11.678 43.5,12C 39.7681,21.398 33.1015,27.7313 23.5,31C 26.1315,32.3267 28.7981,33.6601 31.5,35C 30.944,35.3826 30.6107,35.8826 30.5,36.5C 29.8333,36.5 29.5,36.8333 29.5,37.5C 29.5,38.1667 29.1667,38.5 28.5,38.5C 27.6618,38.8417 27.3284,39.5084 27.5,40.5C 18.0507,37.1422 16.384,31.6422 22.5,24C 26.8307,22.5075 30.4973,20.0075 33.5,16.5C 35.6352,10.9568 37.3019,5.29017 38.5,-0.5 Z"/></g>
<g><path style="opacity:0.004" fill="#270d0b" d="M 109.5,0.5 C 109.5,0.166667 109.5,-0.166667 109.5,-0.5C 110.833,-0.5 112.167,-0.5 113.5,-0.5C 112.432,0.434475 111.099,0.767809 109.5,0.5 Z"/></g>
<g><path style="opacity:0.006" fill="#311815" d="M 73.5,3.5 C 73.5,3.83333 73.5,4.16667 73.5,4.5C 72.1266,4.65668 70.7932,4.49001 69.5,4C 70.6667,3.5 71.5,2.66667 72,1.5C 72.2784,2.4158 72.7784,3.08247 73.5,3.5 Z"/></g>
<g><path style="opacity:0.008" fill="#2a100d" d="M 121.5,3.5 C 121.897,2.47498 122.563,2.30831 123.5,3C 122.906,3.46434 122.239,3.63101 121.5,3.5 Z"/></g>
<g><path style="opacity:0.522" fill="#281713" d="M 80.5,-0.5 C 88.1667,-0.5 95.8333,-0.5 103.5,-0.5C 105.265,0.461384 107.265,0.794717 109.5,0.5C 113.313,1.78665 117.313,2.78665 121.5,3.5C 123.89,5.01977 126.557,6.01977 129.5,6.5C 135.3,9.90395 140.967,13.5706 146.5,17.5C 147.466,20.1247 148.466,20.1247 149.5,17.5C 150.183,17.8627 150.85,18.1961 151.5,18.5C 151.5,19.1667 151.833,19.5 152.5,19.5C 152.5,20.5 152.5,21.5 152.5,22.5C 151.685,21.5707 150.852,20.5707 150,19.5C 149.667,20.5 149.333,21.5 149,22.5C 140.719,14.1106 130.886,8.44391 119.5,5.5C 110.603,2.12157 101.269,0.788237 91.5,1.5C 86.1194,1.50583 81.1194,2.1725 76.5,3.5C 75.5,3.5 74.5,3.5 73.5,3.5C 73.3691,2.62356 73.7025,1.95689 74.5,1.5C 76.6568,0.94955 78.6568,0.282883 80.5,-0.5 Z"/></g>
<g><path style="opacity:0.223" fill="#f9dc14" d="M 162.5,58.5 C 161.659,56.6208 161.325,54.6208 161.5,52.5C 161.5,51.8333 161.5,51.1667 161.5,50.5C 159.996,47.1849 158.829,43.8516 158,40.5C 159.674,41.6765 161.174,43.0098 162.5,44.5C 164.493,42.1723 166.493,39.839 168.5,37.5C 173,32.337 172.333,28.0037 166.5,24.5C 166.5,23.1667 166.5,21.8333 166.5,20.5C 164.488,19.9862 162.488,19.8195 160.5,20C 157.998,21.3375 155.998,23.1708 154.5,25.5C 153.824,24.3984 153.158,23.3984 152.5,22.5C 152.5,21.5 152.5,20.5 152.5,19.5C 151.833,19.5 151.5,19.1667 151.5,18.5C 153.614,14.4103 155.281,10.077 156.5,5.5C 160.642,2.59284 164.476,2.92618 168,6.5C 169.136,10.2432 170.47,13.9099 172,17.5C 175.749,20.8522 179.416,24.1856 183,27.5C 183.755,30.3033 183.422,32.9699 182,35.5C 179,37.8333 176,40.1667 173,42.5C 171.182,46.7701 169.515,51.1034 168,55.5C 166.981,56.6872 165.814,57.6872 164.5,58.5C 163.174,74.4451 162.507,74.4451 162.5,58.5 Z"/></g>
<g><path style="opacity:0.012" fill="#250b09" d="M 129.5,5.5 C 130.833,6.16667 130.833,6.16667 129.5,5.5 Z"/></g>
<g><path style="opacity:0.008" fill="#240d0a" d="M 59.5,7.5 C 60.2506,6.42654 61.2506,6.25988 62.5,7C 61.552,7.48278 60.552,7.64945 59.5,7.5 Z"/></g>
<g><path style="opacity:0.202" fill="#1f100b" d="M 76.5,3.5 C 77.9778,3.23798 79.3112,3.57131 80.5,4.5C 74.889,5.67612 69.5556,7.34279 64.5,9.5C 60.5508,9.98176 56.7175,10.9818 53,12.5C 52.2352,12.4301 51.7352,12.0967 51.5,11.5C 51.8333,11.5 52.1667,11.5 52.5,11.5C 53.1667,11.5 53.5,11.1667 53.5,10.5C 54.791,10.7373 55.791,10.404 56.5,9.5C 62.439,8.40553 68.1057,6.73887 73.5,4.5C 74.791,4.73731 75.791,4.40397 76.5,3.5 Z"/></g>
<g><path style="opacity:0.008" fill="#260c09" d="M 149.5,15.5 C 150.833,16.1667 150.833,16.1667 149.5,15.5 Z"/></g>
<g><path style="opacity:1" fill="#cbab82" d="M 119.5,5.5 C 115.445,5.17575 111.445,5.50909 107.5,6.5C 109.824,7.66222 112.158,8.82889 114.5,10C 113.366,11.016 113.699,11.6827 115.5,12C 114.833,12.3333 114.167,12.6667 113.5,13C 114.611,14.6414 116.611,15.9748 119.5,17C 118.833,17.6667 118.167,18.3333 117.5,19C 119.708,19.1909 121.708,19.6909 123.5,20.5C 118.797,20.4372 114.13,20.7705 109.5,21.5C 108.167,20.8333 106.833,20.1667 105.5,19.5C 99.1774,18.7549 91.5107,17.9216 82.5,17C 92.1667,16.6667 101.833,16.3333 111.5,16C 101.167,15.6667 90.8333,15.3333 80.5,15C 86.993,12.212 93.6596,10.0453 100.5,8.5C 90.3162,6.55117 80.4829,7.55117 71,11.5C 69.1208,9.98718 66.9541,9.32051 64.5,9.5C 69.5556,7.34279 74.889,5.67612 80.5,4.5C 79.3112,3.57131 77.9778,3.23798 76.5,3.5C 81.1194,2.1725 86.1194,1.50583 91.5,1.5C 101.269,0.788237 110.603,2.12157 119.5,5.5 Z"/></g>
<g><path style="opacity:0.02" fill="#1d0403" d="M 146.5,16.5 C 147.833,17.1667 147.833,17.1667 146.5,16.5 Z"/></g>
<g><path style="opacity:1" fill="#d7bc90" d="M 105.5,19.5 C 98.1124,19.2534 90.779,19.7534 83.5,21C 79.6536,22.0859 76.3203,23.9193 73.5,26.5C 69.6742,27.4796 69.6742,28.3129 73.5,29C 68.1347,32.0141 62.8014,35.0141 57.5,38C 60.5,38.3333 63.5,38.6667 66.5,39C 65.2881,40.1068 65.6214,40.6068 67.5,40.5C 66.5,41.1667 65.5,41.8333 64.5,42.5C 63.8478,43.7251 62.6811,44.3917 61,44.5C 58.0337,43.2712 55.2004,43.4379 52.5,45C 51.4038,48.7919 50.4038,52.6252 49.5,56.5C 48.609,57.1098 47.609,57.4431 46.5,57.5C 47.9638,50.2403 50.7972,43.5737 55,37.5C 58.6229,35.2775 62.1229,32.9442 65.5,30.5C 62.9242,28.046 59.9242,26.3793 56.5,25.5C 52.54,22.5198 50.2066,18.5198 49.5,13.5C 49.8333,12.5 50.5,11.8333 51.5,11.5C 51.7352,12.0967 52.2352,12.4301 53,12.5C 56.7175,10.9818 60.5508,9.98176 64.5,9.5C 66.9541,9.32051 69.1208,9.98718 71,11.5C 80.4829,7.55117 90.3162,6.55117 100.5,8.5C 93.6596,10.0453 86.993,12.212 80.5,15C 90.8333,15.3333 101.167,15.6667 111.5,16C 101.833,16.3333 92.1667,16.6667 82.5,17C 91.5107,17.9216 99.1774,18.7549 105.5,19.5 Z"/></g>
<g><path style="opacity:1" fill="#ceb289" d="M 119.5,5.5 C 130.886,8.44391 140.719,14.1106 149,22.5C 149.333,21.5 149.667,20.5 150,19.5C 150.852,20.5707 151.685,21.5707 152.5,22.5C 150.613,25.1505 148.613,27.8172 146.5,30.5C 145.395,29.3995 144.062,28.7329 142.5,28.5C 137.28,23.3953 130.947,20.7287 123.5,20.5C 121.708,19.6909 119.708,19.1909 117.5,19C 118.167,18.3333 118.833,17.6667 119.5,17C 116.611,15.9748 114.611,14.6414 113.5,13C 114.167,12.6667 114.833,12.3333 115.5,12C 113.699,11.6827 113.366,11.016 114.5,10C 112.158,8.82889 109.824,7.66222 107.5,6.5C 111.445,5.50909 115.445,5.17575 119.5,5.5 Z"/></g>
<g><path style="opacity:1" fill="#836750" d="M 105.5,19.5 C 106.833,20.1667 108.167,20.8333 109.5,21.5C 101.826,21.3336 94.1594,21.5003 86.5,22C 81.9668,23.0107 77.6334,24.5107 73.5,26.5C 76.3203,23.9193 79.6536,22.0859 83.5,21C 90.779,19.7534 98.1124,19.2534 105.5,19.5 Z"/></g>
<g><path style="opacity:1" fill="#6d513f" d="M 123.5,20.5 C 130.947,20.7287 137.28,23.3953 142.5,28.5C 132.301,21.5333 121.301,19.8666 109.5,23.5C 109.5,22.8333 109.5,22.1667 109.5,21.5C 114.13,20.7705 118.797,20.4372 123.5,20.5 Z"/></g>
<g><path style="opacity:1" fill="#cab28e" d="M 142.5,28.5 C 144.628,31.1303 146.961,33.6303 149.5,36C 147.536,36.624 145.869,36.124 144.5,34.5C 143.833,36.8333 143.167,39.1667 142.5,41.5C 141.606,38.5641 139.939,37.5641 137.5,38.5C 136.5,37.1667 135.5,35.8333 134.5,34.5C 127.987,26.5504 119.654,23.5504 109.5,25.5C 108.537,25.0302 108.537,24.3635 109.5,23.5C 121.301,19.8666 132.301,21.5333 142.5,28.5 Z"/></g>
<g><path style="opacity:0.996" fill="#fcefc5" d="M 166.5,24.5 C 167.71,26.5516 168.71,28.7182 169.5,31C 165.831,40.2156 161.331,40.7156 156,32.5C 155.51,31.2068 155.343,29.8734 155.5,28.5C 157.293,21.147 160.96,19.8136 166.5,24.5 Z"/></g>
<g><path style="opacity:1" fill="#fdfaef" d="M 48.5,22.5 C 51.7073,24.5472 54.0407,27.3806 55.5,31C 52.9072,34.0757 50.5739,37.2424 48.5,40.5C 46.7615,41.4339 45.0948,41.4339 43.5,40.5C 40.9373,37.1825 38.2706,34.0158 35.5,31C 38.1529,27.6778 40.8195,24.3444 43.5,21C 45.4952,20.3872 47.1619,20.8872 48.5,22.5 Z"/></g>
<g><path style="opacity:1" fill="#c6ac89" d="M 109.5,21.5 C 109.5,22.1667 109.5,22.8333 109.5,23.5C 107.973,23.427 106.973,24.0937 106.5,25.5C 102.648,28.1646 99.9811,31.8313 98.5,36.5C 99.9738,37.5843 100.807,38.9176 101,40.5C 97.3598,37.5433 93.1931,35.71 88.5,35C 81.5,34.6667 74.5,34.3333 67.5,34C 71.4535,31.1901 75.7868,29.1901 80.5,28C 77.9644,27.8138 75.631,27.3138 73.5,26.5C 77.6334,24.5107 81.9668,23.0107 86.5,22C 94.1594,21.5003 101.826,21.3336 109.5,21.5 Z"/></g>
<g><path style="opacity:0.996" fill="#f9cd58" d="M 49.5,13.5 C 50.2066,18.5198 52.54,22.5198 56.5,25.5C 55.8333,25.5 55.5,25.8333 55.5,26.5C 52.0087,22.8741 48.5087,19.2074 45,15.5C 43.2246,16.7698 42.058,18.4365 41.5,20.5C 38.1763,23.3235 35.0096,26.3235 32,29.5C 31.6506,32.3305 32.8173,34.3305 35.5,35.5C 37.9092,37.9024 39.9092,40.5691 41.5,43.5C 40.6618,43.8417 40.3284,44.5084 40.5,45.5C 39.2349,42.3679 37.2349,39.5346 34.5,37C 33.2068,36.51 31.8734,36.3433 30.5,36.5C 30.6107,35.8826 30.944,35.3826 31.5,35C 28.7981,33.6601 26.1315,32.3267 23.5,31C 33.1015,27.7313 39.7681,21.398 43.5,12C 45.6889,11.678 47.6889,12.178 49.5,13.5 Z"/></g>
<g><path style="opacity:1" fill="#bba583" d="M 111.5,27.5 C 117.579,26.5915 122.912,28.0915 127.5,32C 122.416,34.3214 117.75,33.6547 113.5,30C 111.833,29.3333 110.167,29.3333 108.5,30C 112.904,30.7011 116.571,32.7011 119.5,36C 117.744,36.2022 116.078,36.7022 114.5,37.5C 115.485,39.0983 115.651,40.765 115,42.5C 112.843,40.505 110.343,39.1717 107.5,38.5C 105.22,37.3599 102.886,36.1932 100.5,35C 103.196,31.1472 106.863,28.6472 111.5,27.5 Z"/></g>
<g><path style="opacity:1" fill="#fceabb" d="M 48.5,22.5 C 47.1619,20.8872 45.4952,20.3872 43.5,21C 40.8195,24.3444 38.1529,27.6778 35.5,31C 38.2706,34.0158 40.9373,37.1825 43.5,40.5C 45.0948,41.4339 46.7615,41.4339 48.5,40.5C 47.5944,42.9137 45.9278,43.747 43.5,43C 41.598,39.5952 38.9313,37.0952 35.5,35.5C 32.8173,34.3305 31.6506,32.3305 32,29.5C 35.0096,26.3235 38.1763,23.3235 41.5,20.5C 44.863,17.5096 47.1963,18.1762 48.5,22.5 Z"/></g>
<g><path style="opacity:1" fill="#fbe898" d="M 55.5,26.5 C 58.4874,27.4782 59.654,29.4782 59,32.5C 53.3988,36.1009 49.2321,40.9343 46.5,47C 43.6551,47.6693 41.9884,46.5027 41.5,43.5C 39.9092,40.5691 37.9092,37.9024 35.5,35.5C 38.9313,37.0952 41.598,39.5952 43.5,43C 45.9278,43.747 47.5944,42.9137 48.5,40.5C 50.5739,37.2424 52.9072,34.0757 55.5,31C 54.0407,27.3806 51.7073,24.5472 48.5,22.5C 47.1963,18.1762 44.863,17.5096 41.5,20.5C 42.058,18.4365 43.2246,16.7698 45,15.5C 48.5087,19.2074 52.0087,22.8741 55.5,26.5 Z"/></g>
<g><path style="opacity:1" fill="#fdf9ed" d="M 159.5,25.5 C 164.991,25.4878 167.491,28.1545 167,33.5C 163.603,37.6538 160.603,37.3204 158,32.5C 157.4,29.9047 157.9,27.5713 159.5,25.5 Z"/></g>
<g><path style="opacity:1" fill="#9d866b" d="M 109.5,23.5 C 108.537,24.3635 108.537,25.0302 109.5,25.5C 119.654,23.5504 127.987,26.5504 134.5,34.5C 133.957,34.56 133.624,34.8933 133.5,35.5C 134.167,36.5 134.833,37.5 135.5,38.5C 135.438,44.9733 132.605,49.6399 127,52.5C 127.693,49.0515 127.527,45.7181 126.5,42.5C 125.898,38.5562 123.898,36.5562 120.5,36.5C 123.04,39.039 123.874,42.039 123,45.5C 116.377,46.0888 111.211,43.7555 107.5,38.5C 110.343,39.1717 112.843,40.505 115,42.5C 115.651,40.765 115.485,39.0983 114.5,37.5C 116.078,36.7022 117.744,36.2022 119.5,36C 116.571,32.7011 112.904,30.7011 108.5,30C 110.167,29.3333 111.833,29.3333 113.5,30C 117.75,33.6547 122.416,34.3214 127.5,32C 122.912,28.0915 117.579,26.5915 111.5,27.5C 109.395,26.1811 107.395,26.5144 105.5,28.5C 105.167,28.3333 104.833,28.1667 104.5,28C 105.381,27.2917 106.047,26.4584 106.5,25.5C 106.973,24.0937 107.973,23.427 109.5,23.5 Z"/></g>
<g><path style="opacity:0.998" fill="#fbe69d" d="M 166.5,24.5 C 172.333,28.0037 173,32.337 168.5,37.5C 166.264,38.3891 164.264,39.7224 162.5,41.5C 161.5,41 160.5,40.5 159.5,40C 157.789,37.4112 155.955,34.9112 154,32.5C 153.227,30.6476 153.727,29.3143 155.5,28.5C 155.343,29.8734 155.51,31.2068 156,32.5C 161.331,40.7156 165.831,40.2156 169.5,31C 168.71,28.7182 167.71,26.5516 166.5,24.5 Z"/></g>
<g><path style="opacity:0.992" fill="#efcb59" d="M 166.5,24.5 C 160.96,19.8136 157.293,21.147 155.5,28.5C 153.727,29.3143 153.227,30.6476 154,32.5C 155.955,34.9112 157.789,37.4112 159.5,40C 160.5,40.5 161.5,41 162.5,41.5C 164.264,39.7224 166.264,38.3891 168.5,37.5C 166.493,39.839 164.493,42.1723 162.5,44.5C 161.174,43.0098 159.674,41.6765 158,40.5C 158.829,43.8516 159.996,47.1849 161.5,50.5C 157.385,43.3557 152.385,36.689 146.5,30.5C 148.613,27.8172 150.613,25.1505 152.5,22.5C 153.158,23.3984 153.824,24.3984 154.5,25.5C 155.998,23.1708 157.998,21.3375 160.5,20C 162.488,19.8195 164.488,19.9862 166.5,20.5C 166.5,21.8333 166.5,23.1667 166.5,24.5 Z"/></g>
<g><path style="opacity:1" fill="#c4baaa" d="M 64.5,42.5 C 65.5,41.8333 66.5,41.1667 67.5,40.5C 75.4837,38.5934 83.1504,39.4267 90.5,43C 81.87,42.6614 73.2034,42.4948 64.5,42.5 Z"/></g>
<g><path style="opacity:1" fill="#a18e73" d="M 73.5,26.5 C 75.631,27.3138 77.9644,27.8138 80.5,28C 75.7868,29.1901 71.4535,31.1901 67.5,34C 74.5,34.3333 81.5,34.6667 88.5,35C 93.1931,35.71 97.3598,37.5433 101,40.5C 100.807,38.9176 99.9738,37.5843 98.5,36.5C 102.883,37.3562 106.216,39.6896 108.5,43.5C 109.694,45.4844 109.694,47.4844 108.5,49.5C 106.431,46.4275 103.764,44.0941 100.5,42.5C 96.1202,38.9768 91.1202,37.1435 85.5,37C 89.7293,38.1146 93.7293,39.7813 97.5,42C 98.6956,42.6543 98.6956,43.1543 97.5,43.5C 95.9017,42.5153 94.235,42.3486 92.5,43C 94.1667,44 95.8333,45 97.5,46C 94.8374,45.8567 92.1708,45.3567 89.5,44.5C 87.3069,44.7186 85.3069,45.3852 83.5,46.5C 73.5469,45.3832 63.5469,45.2165 53.5,46C 55.4357,46.813 57.4357,47.313 59.5,47.5C 62.977,48.3227 66.6437,48.8227 70.5,49C 68.9559,49.2896 67.6226,49.9563 66.5,51C 69.1667,51.3333 71.8333,51.6667 74.5,52C 70.1062,53.1312 65.7728,54.4646 61.5,56C 60.1667,56.6667 60.1667,57.3333 61.5,58C 60.4293,58.8518 59.4293,59.6851 58.5,60.5C 54.5174,61.6806 51.5174,60.3473 49.5,56.5C 50.4038,52.6252 51.4038,48.7919 52.5,45C 55.2004,43.4379 58.0337,43.2712 61,44.5C 62.6811,44.3917 63.8478,43.7251 64.5,42.5C 73.2034,42.4948 81.87,42.6614 90.5,43C 83.1504,39.4267 75.4837,38.5934 67.5,40.5C 65.6214,40.6068 65.2881,40.1068 66.5,39C 63.5,38.6667 60.5,38.3333 57.5,38C 62.8014,35.0141 68.1347,32.0141 73.5,29C 69.6742,28.3129 69.6742,27.4796 73.5,26.5 Z"/></g>
<g><path style="opacity:1" fill="#938062" d="M 142.5,28.5 C 144.062,28.7329 145.395,29.3995 146.5,30.5C 152.385,36.689 157.385,43.3557 161.5,50.5C 161.5,51.1667 161.5,51.8333 161.5,52.5C 155.895,52.2748 153.561,49.2748 154.5,43.5C 152.738,43.6427 151.071,43.3094 149.5,42.5C 147.332,47.008 143.832,50.008 139,51.5C 138.708,47.118 138.208,42.7847 137.5,38.5C 139.939,37.5641 141.606,38.5641 142.5,41.5C 143.167,39.1667 143.833,36.8333 144.5,34.5C 145.869,36.124 147.536,36.624 149.5,36C 146.961,33.6303 144.628,31.1303 142.5,28.5 Z"/></g>
<g><path style="opacity:0.008" fill="#321814" d="M 25.5,46.5 C 24.4265,45.7494 24.2599,44.7494 25,43.5C 25.4828,44.448 25.6495,45.448 25.5,46.5 Z"/></g>
<g><path style="opacity:1" fill="#f6d843" d="M 55.5,26.5 C 55.5,25.8333 55.8333,25.5 56.5,25.5C 59.9242,26.3793 62.9242,28.046 65.5,30.5C 62.1229,32.9442 58.6229,35.2775 55,37.5C 50.7972,43.5737 47.9638,50.2403 46.5,57.5C 45.4523,59.9327 44.7856,59.9327 44.5,57.5C 43.2848,53.3685 41.9514,49.3685 40.5,45.5C 40.3284,44.5084 40.6618,43.8417 41.5,43.5C 41.9884,46.5027 43.6551,47.6693 46.5,47C 49.2321,40.9343 53.3988,36.1009 59,32.5C 59.654,29.4782 58.4874,27.4782 55.5,26.5 Z"/></g>
<g><path style="opacity:1" fill="#786552" d="M 106.5,25.5 C 106.047,26.4584 105.381,27.2917 104.5,28C 104.833,28.1667 105.167,28.3333 105.5,28.5C 107.395,26.5144 109.395,26.1811 111.5,27.5C 106.863,28.6472 103.196,31.1472 100.5,35C 102.886,36.1932 105.22,37.3599 107.5,38.5C 111.211,43.7555 116.377,46.0888 123,45.5C 123.874,42.039 123.04,39.039 120.5,36.5C 123.898,36.5562 125.898,38.5562 126.5,42.5C 124.774,45.4293 122.94,48.4293 121,51.5C 117.779,50.284 115.112,48.284 113,45.5C 112.667,45.8333 112.333,46.1667 112,46.5C 111,45.1667 110,43.8333 109,42.5C 108.601,42.7284 108.435,43.0618 108.5,43.5C 106.216,39.6896 102.883,37.3562 98.5,36.5C 99.9811,31.8313 102.648,28.1646 106.5,25.5 Z"/></g>
<g><path style="opacity:1" fill="#7c6f5e" d="M 100.5,42.5 C 101.96,45.4194 103.626,48.7527 105.5,52.5C 104.5,52.8333 103.5,53.1667 102.5,53.5C 96.1097,51.0374 89.7764,48.7041 83.5,46.5C 85.3069,45.3852 87.3069,44.7186 89.5,44.5C 92.1708,45.3567 94.8374,45.8567 97.5,46C 95.8333,45 94.1667,44 92.5,43C 94.235,42.3486 95.9017,42.5153 97.5,43.5C 98.6956,43.1543 98.6956,42.6543 97.5,42C 93.7293,39.7813 89.7293,38.1146 85.5,37C 91.1202,37.1435 96.1202,38.9768 100.5,42.5 Z"/></g>
<g><path style="opacity:0.008" fill="#280e0b" d="M 24.5,51.5 C 24.1667,51.5 23.8333,51.5 23.5,51.5C 23.8333,46.1667 24.1667,46.1667 24.5,51.5 Z"/></g>
<g><path style="opacity:1" fill="#7e7261" d="M 59.5,47.5 C 65.8421,47.3338 72.1754,47.5005 78.5,48C 83.5672,49.0326 87.9005,51.3659 91.5,55C 84.8333,55.3333 78.1667,55.6667 71.5,56C 68.5432,56.2794 65.8766,57.1127 63.5,58.5C 62.2196,59.9313 60.5529,60.5979 58.5,60.5C 59.4293,59.6851 60.4293,58.8518 61.5,58C 60.1667,57.3333 60.1667,56.6667 61.5,56C 65.7728,54.4646 70.1062,53.1312 74.5,52C 71.8333,51.6667 69.1667,51.3333 66.5,51C 67.6226,49.9563 68.9559,49.2896 70.5,49C 66.6437,48.8227 62.977,48.3227 59.5,47.5 Z"/></g>
<g><path style="opacity:0.211" fill="#f6db0c" d="M 26.5,67.5 C 26.5,70.1667 26.5,72.8333 26.5,75.5C 25.6805,78.3054 25.1805,81.3054 25,84.5C 24.6667,82.5 24.3333,80.5 24,78.5C 21.497,81.5017 19.497,84.8351 18,88.5C 15.5027,90.4782 12.6693,90.9782 9.5,90C 7.30246,87.4171 5.46913,84.5838 4,81.5C 2.62879,79.9586 1.12879,78.6253 -0.5,77.5C -0.5,73.5 -0.5,69.5 -0.5,65.5C 2.97738,62.5597 5.47738,58.893 7,54.5C 10.7938,50.9524 14.4605,50.9524 18,54.5C 19.1727,58.3372 21.1727,61.6706 24,64.5C 24.3333,62.1667 24.6667,59.8333 25,57.5C 25.1787,61.0252 25.6787,64.3586 26.5,67.5 Z"/></g>
<g><path style="opacity:0.016" fill="#290f0d" d="M 23.5,51.5 C 23.6567,52.8734 23.49,54.2068 23,55.5C 22.235,53.9343 22.4017,52.6009 23.5,51.5 Z"/></g>
<g><path style="opacity:0.349" fill="#2e1c18" d="M 29.5,37.5 C 30.0967,37.7352 30.4301,38.2352 30.5,39C 28.9927,42.0212 27.9927,45.1879 27.5,48.5C 26.8614,49.0968 26.528,49.9302 26.5,51C 28.0436,54.3395 28.7102,57.8395 28.5,61.5C 28.1717,73.3453 28.5051,85.012 29.5,96.5C 29.6203,99.4802 30.287,102.313 31.5,105C 30.6195,105.708 29.9528,106.542 29.5,107.5C 26.867,112.032 25.867,117.032 26.5,122.5C 26.1667,122.5 25.8333,122.5 25.5,122.5C 25.3531,117.786 25.6864,113.119 26.5,108.5C 29.4911,105.241 29.8245,101.574 27.5,97.5C 27.1667,82.8333 26.8333,82.8333 26.5,97.5C 25.6939,90.3365 25.6939,83.0032 26.5,75.5C 26.5,72.8333 26.5,70.1667 26.5,67.5C 26.5393,62.0564 25.8727,56.7231 24.5,51.5C 25.4511,50.0813 25.7845,48.4147 25.5,46.5C 26.7384,44.7857 27.405,42.7857 27.5,40.5C 28.3382,40.1583 28.6716,39.4916 28.5,38.5C 29.1667,38.5 29.5,38.1667 29.5,37.5 Z"/></g>
<g><path style="opacity:1" fill="#d3bc83" d="M 29.5,37.5 C 29.5,36.8333 29.8333,36.5 30.5,36.5C 31.8734,36.3433 33.2068,36.51 34.5,37C 37.2349,39.5346 39.2349,42.3679 40.5,45.5C 41.9514,49.3685 43.2848,53.3685 44.5,57.5C 38.4354,57.2648 35.2688,54.2648 35,48.5C 38.6241,45.5624 38.1241,44.3957 33.5,45C 31.3762,46.1217 29.5429,47.6217 28,49.5C 27.6012,49.2716 27.4346,48.9382 27.5,48.5C 27.9927,45.1879 28.9927,42.0212 30.5,39C 30.4301,38.2352 30.0967,37.7352 29.5,37.5 Z"/></g>
<g><path style="opacity:1" fill="#47352a" d="M 134.5,34.5 C 135.5,35.8333 136.5,37.1667 137.5,38.5C 138.208,42.7847 138.708,47.118 139,51.5C 143.832,50.008 147.332,47.008 149.5,42.5C 151.071,43.3094 152.738,43.6427 154.5,43.5C 153.561,49.2748 155.895,52.2748 161.5,52.5C 161.325,54.6208 161.659,56.6208 162.5,58.5C 161.899,67.6581 161.899,76.9915 162.5,86.5C 161.566,87.5676 161.232,88.901 161.5,90.5C 161.5,93.8333 161.5,97.1667 161.5,100.5C 161.922,109.829 162.255,119.163 162.5,128.5C 162.5,129.167 162.5,129.833 162.5,130.5C 160.863,116.367 160.196,102.034 160.5,87.5C 160.5,83.8333 160.5,80.1667 160.5,76.5C 160.5,74.5 160.5,72.5 160.5,70.5C 160.92,65.3375 159.92,60.5041 157.5,56C 145.039,53.7611 132.706,54.4278 120.5,58C 114.843,58.4994 109.176,58.6661 103.5,58.5C 90.1542,57.2892 76.8209,57.2892 63.5,58.5C 65.8766,57.1127 68.5432,56.2794 71.5,56C 78.1667,55.6667 84.8333,55.3333 91.5,55C 87.9005,51.3659 83.5672,49.0326 78.5,48C 72.1754,47.5005 65.8421,47.3338 59.5,47.5C 57.4357,47.313 55.4357,46.813 53.5,46C 63.5469,45.2165 73.5469,45.3832 83.5,46.5C 89.7764,48.7041 96.1097,51.0374 102.5,53.5C 103.5,53.1667 104.5,52.8333 105.5,52.5C 103.626,48.7527 101.96,45.4194 100.5,42.5C 103.764,44.0941 106.431,46.4275 108.5,49.5C 109.694,47.4844 109.694,45.4844 108.5,43.5C 108.435,43.0618 108.601,42.7284 109,42.5C 110,43.8333 111,45.1667 112,46.5C 112.333,46.1667 112.667,45.8333 113,45.5C 115.112,48.284 117.779,50.284 121,51.5C 122.94,48.4293 124.774,45.4293 126.5,42.5C 127.527,45.7181 127.693,49.0515 127,52.5C 132.605,49.6399 135.438,44.9733 135.5,38.5C 134.833,37.5 134.167,36.5 133.5,35.5C 133.624,34.8933 133.957,34.56 134.5,34.5 Z"/></g>
<g><path style="opacity:1" fill="#f1bfa7" d="M 160.5,70.5 C 159.686,68.369 159.186,66.0356 159,63.5C 158.503,65.8098 158.337,68.1432 158.5,70.5C 145.534,67.219 132.534,63.719 119.5,60C 113.984,59.8267 108.651,59.3267 103.5,58.5C 109.176,58.6661 114.843,58.4994 120.5,58C 132.706,54.4278 145.039,53.7611 157.5,56C 159.92,60.5041 160.92,65.3375 160.5,70.5 Z"/></g>
<g><path style="opacity:1" fill="#957556" d="M 44.5,57.5 C 44.7856,59.9327 45.4523,59.9327 46.5,57.5C 47.609,57.4431 48.609,57.1098 49.5,56.5C 51.5174,60.3473 54.5174,61.6806 58.5,60.5C 55.5282,62.6411 53.0282,65.3078 51,68.5C 50.1955,71.6965 50.3622,74.6965 51.5,77.5C 53.1427,82.2712 52.476,86.6045 49.5,90.5C 50.2071,87.2139 50.5405,83.8806 50.5,80.5C 49.7332,76.5845 49.2332,72.5845 49,68.5C 43.9308,60.6441 37.0975,58.3107 28.5,61.5C 28.7102,57.8395 28.0436,54.3395 26.5,51C 26.528,49.9302 26.8614,49.0968 27.5,48.5C 27.4346,48.9382 27.6012,49.2716 28,49.5C 29.5429,47.6217 31.3762,46.1217 33.5,45C 38.1241,44.3957 38.6241,45.5624 35,48.5C 35.2688,54.2648 38.4354,57.2648 44.5,57.5 Z"/></g>
<g><path style="opacity:1" fill="#f8c9b1" d="M 103.5,58.5 C 108.651,59.3267 113.984,59.8267 119.5,60C 132.534,63.719 145.534,67.219 158.5,70.5C 158.5,71.5 158.5,72.5 158.5,73.5C 154.818,73.6653 151.152,73.4986 147.5,73C 136.989,69.7729 126.323,67.2729 115.5,65.5C 110.723,65.6939 106.057,66.5272 101.5,68C 93.6535,68.629 85.8202,68.4624 78,67.5C 71.8013,67.887 65.6346,68.5537 59.5,69.5C 57.6132,71.0404 55.7799,72.7071 54,74.5C 53.5359,80.1748 52.8693,80.5081 52,75.5C 51.5357,76.0944 51.369,76.7611 51.5,77.5C 50.3622,74.6965 50.1955,71.6965 51,68.5C 53.0282,65.3078 55.5282,62.6411 58.5,60.5C 60.5529,60.5979 62.2196,59.9313 63.5,58.5C 76.8209,57.2892 90.1542,57.2892 103.5,58.5 Z"/></g>
<g><path style="opacity:0.994" fill="#f8c52c" d="M 15.5,65.5 C 14.5837,65.0183 13.5837,64.685 12.5,64.5C 7.50686,66.7841 5.8402,70.4508 7.5,75.5C 5.64203,74.4045 3.97536,73.0712 2.5,71.5C 8.07855,68.013 11.4119,63.013 12.5,56.5C 13.7036,59.4441 14.7036,62.4441 15.5,65.5 Z"/></g>
<g><path style="opacity:1" fill="#f6cbb5" d="M 160.5,70.5 C 160.5,72.5 160.5,74.5 160.5,76.5C 157.281,77.6382 153.947,78.4715 150.5,79C 149.944,79.3826 149.611,79.8826 149.5,80.5C 147.036,78.6012 144.369,77.2679 141.5,76.5C 142.239,76.631 142.906,76.4643 143.5,76C 134.372,72.4062 124.872,70.2395 115,69.5C 106.622,70.5021 98.289,71.5021 90,72.5C 81.5787,71.351 73.0787,71.1843 64.5,72C 55.1956,73.8587 52.1956,79.3587 55.5,88.5C 55.4088,90.6977 56.0755,91.0311 57.5,89.5C 59.6326,91.0905 61.2993,93.0905 62.5,95.5C 61.2112,96.6366 60.2112,97.9699 59.5,99.5C 58.375,100.652 58.375,101.652 59.5,102.5C 55.4909,106.824 55.8243,110.824 60.5,114.5C 62.1558,117.139 63.8224,119.805 65.5,122.5C 61.1027,123.541 58.1027,126.208 56.5,130.5C 58.6148,134.365 60.2814,138.031 61.5,141.5C 57.1942,146.418 58.5275,148.585 65.5,148C 64.1667,148.667 64.1667,149.333 65.5,150C 70.9295,152.771 76.5961,154.437 82.5,155C 78.6002,153.435 74.9335,151.435 71.5,149C 72.0253,148.308 72.6919,147.808 73.5,147.5C 74.916,149.139 76.5826,149.973 78.5,150C 75.7104,147.79 74.877,144.956 76,141.5C 77.6091,138.593 79.4424,135.927 81.5,133.5C 82.2389,133.369 82.9056,133.536 83.5,134C 76.7254,140.947 77.3921,146.614 85.5,151C 89.1135,151.936 92.7802,152.436 96.5,152.5C 97.1667,152.833 97.8333,153.167 98.5,153.5C 100.745,158.216 104.579,160.549 110,160.5C 116.038,160.405 119.538,157.405 120.5,151.5C 120.833,151.5 121.167,151.5 121.5,151.5C 121.435,151.938 121.601,152.272 122,152.5C 126.82,151.585 131.653,151.085 136.5,151C 131.437,153.861 126.437,156.694 121.5,159.5C 117.908,161.689 113.908,162.689 109.5,162.5C 102.44,161.823 95.4405,160.823 88.5,159.5C 88.1667,159.5 87.8333,159.5 87.5,159.5C 84.4172,157.975 81.0839,156.975 77.5,156.5C 76.1667,156.5 74.8333,156.5 73.5,156.5C 71.954,154.069 69.6207,152.736 66.5,152.5C 66.1667,152.5 65.8333,152.5 65.5,152.5C 64.4863,151.326 63.153,150.66 61.5,150.5C 60.5084,150.672 59.8417,150.338 59.5,149.5C 59.0269,148.094 58.0269,147.427 56.5,147.5C 55.5084,147.672 54.8417,147.338 54.5,146.5C 53.5,145.167 52.5,143.833 51.5,142.5C 51.3893,141.883 51.056,141.383 50.5,141C 53.28,132.643 52.6133,124.477 48.5,116.5C 48.3268,107.805 48.6602,99.1384 49.5,90.5C 52.476,86.6045 53.1427,82.2712 51.5,77.5C 51.369,76.7611 51.5357,76.0944 52,75.5C 52.8693,80.5081 53.5359,80.1748 54,74.5C 55.7799,72.7071 57.6132,71.0404 59.5,69.5C 65.6346,68.5537 71.8013,67.887 78,67.5C 85.8202,68.4624 93.6535,68.629 101.5,68C 106.057,66.5272 110.723,65.6939 115.5,65.5C 126.323,67.2729 136.989,69.7729 147.5,73C 151.152,73.4986 154.818,73.6653 158.5,73.5C 158.5,72.5 158.5,71.5 158.5,70.5C 158.337,68.1432 158.503,65.8098 159,63.5C 159.186,66.0356 159.686,68.369 160.5,70.5 Z"/></g>
<g><path style="opacity:1" fill="#bfa387" d="M 50.5,80.5 C 49.5655,81.5676 49.2322,82.901 49.5,84.5C 43.8068,81.945 37.9734,79.6117 32,77.5C 30.984,78.6341 30.3173,78.3008 30,76.5C 29.5004,83.1583 29.3337,89.825 29.5,96.5C 28.5051,85.012 28.1717,73.3453 28.5,61.5C 37.0975,58.3107 43.9308,60.6441 49,68.5C 49.2332,72.5845 49.7332,76.5845 50.5,80.5 Z"/></g>
<g><path style="opacity:1" fill="#f4d6c0" d="M 141.5,76.5 C 137.727,76.2633 134.06,76.7633 130.5,78C 127.669,80.0007 125.003,82.1673 122.5,84.5C 122.056,82.8868 121.056,81.7202 119.5,81C 115.593,80.323 111.759,79.4896 108,78.5C 106.667,79.1667 105.333,79.8333 104,80.5C 99.7633,79.7131 95.2633,79.5464 90.5,80C 91.5981,80.7697 91.5981,81.603 90.5,82.5C 80.2649,76.8513 70.2649,77.1846 60.5,83.5C 59.4756,84.8518 58.4756,86.1851 57.5,87.5C 56.8333,87.8333 56.1667,88.1667 55.5,88.5C 52.1956,79.3587 55.1956,73.8587 64.5,72C 73.0787,71.1843 81.5787,71.351 90,72.5C 98.289,71.5021 106.622,70.5021 115,69.5C 124.872,70.2395 134.372,72.4062 143.5,76C 142.906,76.4643 142.239,76.631 141.5,76.5 Z"/></g>
<g><path style="opacity:0.215" fill="#fce010" d="M 191.5,91.5 C 191.5,93.8333 191.5,96.1667 191.5,98.5C 189.402,101.156 186.902,103.489 184,105.5C 181.89,108.492 180.557,111.825 180,115.5C 175.982,118.439 172.315,118.105 169,114.5C 167.861,110.888 166.194,107.554 164,104.5C 163.667,107.167 163.333,109.833 163,112.5C 162.824,108.312 162.324,104.312 161.5,100.5C 161.5,97.1667 161.5,93.8333 161.5,90.5C 162.434,89.4324 162.768,88.099 162.5,86.5C 163.794,85.7101 164.961,84.7101 166,83.5C 166.277,75.8819 170.11,72.7152 177.5,74C 180.037,77.5948 182.203,81.4281 184,85.5C 186.439,87.6286 188.939,89.6286 191.5,91.5 Z"/></g>
<g><path style="opacity:0.992" fill="#fadf7f" d="M 15.5,65.5 C 16.4584,65.9528 17.2917,66.6195 18,67.5C 19.7339,72.7744 18.0673,76.4411 13,78.5C 10.9149,77.8758 9.08161,76.8758 7.5,75.5C 5.8402,70.4508 7.50686,66.7841 12.5,64.5C 13.5837,64.685 14.5837,65.0183 15.5,65.5 Z"/></g>
<g><path style="opacity:1" fill="#fcf3d1" d="M 10.5,67.5 C 15.0685,67.0826 16.5685,69.0826 15,73.5C 13.4506,76.0026 11.7839,76.0026 10,73.5C 9.32239,71.4024 9.48905,69.4024 10.5,67.5 Z"/></g>
<g><path style="opacity:1" fill="#311715" d="M 141.5,76.5 C 144.369,77.2679 147.036,78.6012 149.5,80.5C 145.073,80.4935 140.406,80.6601 135.5,81C 131.995,81.1191 128.995,82.2857 126.5,84.5C 124.973,84.427 123.973,85.0937 123.5,86.5C 119.89,87.847 119.557,87.1804 122.5,84.5C 125.003,82.1673 127.669,80.0007 130.5,78C 134.06,76.7633 137.727,76.2633 141.5,76.5 Z"/></g>
<g><path style="opacity:1" fill="#311614" d="M 90.5,82.5 C 90.5,82.8333 90.5,83.1667 90.5,83.5C 78.9311,81.1169 67.9311,82.4502 57.5,87.5C 58.4756,86.1851 59.4756,84.8518 60.5,83.5C 70.2649,77.1846 80.2649,76.8513 90.5,82.5 Z"/></g>
<g><path style="opacity:1" fill="#d99381" d="M 149.5,80.5 C 151.085,81.0024 151.585,82.0024 151,83.5C 142.77,82.0404 134.603,82.3738 126.5,84.5C 128.995,82.2857 131.995,81.1191 135.5,81C 140.406,80.6601 145.073,80.4935 149.5,80.5 Z"/></g>
<g><path style="opacity:1" fill="#e59380" d="M 90.5,83.5 C 92.6859,83.5106 93.5192,84.5106 93,86.5C 85.2847,84.7944 77.4514,84.2944 69.5,85C 65.1438,85.6834 61.1438,87.1834 57.5,89.5C 56.0755,91.0311 55.4088,90.6977 55.5,88.5C 56.1667,88.1667 56.8333,87.8333 57.5,87.5C 67.9311,82.4502 78.9311,81.1169 90.5,83.5 Z"/></g>
<g><path style="opacity:1" fill="#f8e5d0" d="M 122.5,84.5 C 119.557,87.1804 119.89,87.847 123.5,86.5C 125.137,85.7822 126.803,85.6155 128.5,86C 127.833,86.3333 127.167,86.6667 126.5,87C 127.305,88.1127 127.972,89.2794 128.5,90.5C 128.167,91.1667 127.833,91.8333 127.5,92.5C 126.504,92.5858 125.671,92.2524 125,91.5C 122.499,95.0313 119.666,98.198 116.5,101C 110.011,102.994 103.678,102.827 97.5,100.5C 91.5757,91.5442 83.2423,88.0442 72.5,90C 68.6891,91.0699 65.3557,92.9033 62.5,95.5C 61.2993,93.0905 59.6326,91.0905 57.5,89.5C 61.1438,87.1834 65.1438,85.6834 69.5,85C 77.4514,84.2944 85.2847,84.7944 93,86.5C 93.5192,84.5106 92.6859,83.5106 90.5,83.5C 90.5,83.1667 90.5,82.8333 90.5,82.5C 91.5981,81.603 91.5981,80.7697 90.5,80C 95.2633,79.5464 99.7633,79.7131 104,80.5C 105.333,79.8333 106.667,79.1667 108,78.5C 111.759,79.4896 115.593,80.323 119.5,81C 121.056,81.7202 122.056,82.8868 122.5,84.5 Z"/></g>
<g><path style="opacity:1" fill="#d58a78" d="M 127.5,92.5 C 127.833,91.8333 128.167,91.1667 128.5,90.5C 136.244,84.82 143.578,85.32 150.5,92C 146.136,90.9567 141.636,90.1234 137,89.5C 132.281,90.8748 128.281,93.5415 125,97.5C 125.058,95.5646 125.891,93.8979 127.5,92.5 Z"/></g>
<g><path style="opacity:0.996" fill="#fadf80" d="M 179.5,91.5 C 182.669,96.0829 181.669,99.7496 176.5,102.5C 176.038,103.88 175.038,104.547 173.5,104.5C 171.506,103.173 169.839,101.506 168.5,99.5C 167.677,97.5454 167.51,95.5454 168,93.5C 169.62,91.7585 171.12,89.9252 172.5,88C 173.5,87.3333 174.5,87.3333 175.5,88C 176.705,89.3756 178.038,90.5423 179.5,91.5 Z"/></g>
<g><path style="opacity:1" fill="#de907e" d="M 97.5,100.5 C 93.4921,98.1633 89.4921,95.83 85.5,93.5C 79.3406,90.6856 73.3406,91.019 67.5,94.5C 64.8695,96.1526 62.2028,97.8193 59.5,99.5C 60.2112,97.9699 61.2112,96.6366 62.5,95.5C 65.3557,92.9033 68.6891,91.0699 72.5,90C 83.2423,88.0442 91.5757,91.5442 97.5,100.5 Z"/></g>
<g><path style="opacity:0.998" fill="#fdf2cd" d="M 176.5,102.5 C 172.126,102.628 169.792,100.462 169.5,96C 172.597,87.4576 175.93,87.4576 179.5,96C 178.71,98.2818 177.71,100.448 176.5,102.5 Z"/></g>
<g><path style="opacity:1" fill="#9b6a5d" d="M 85.5,93.5 C 79.4549,93.3032 73.4549,93.6365 67.5,94.5C 73.3406,91.019 79.3406,90.6856 85.5,93.5 Z"/></g>
<g><path style="opacity:0.994" fill="#f9c237" d="M 179.5,91.5 C 178.038,90.5423 176.705,89.3756 175.5,88C 174.5,87.3333 173.5,87.3333 172.5,88C 171.12,89.9252 169.62,91.7585 168,93.5C 167.51,95.5454 167.677,97.5454 168.5,99.5C 166.176,98.6702 164.176,97.3369 162.5,95.5C 169.323,91.4919 173.156,85.4919 174,77.5C 175.231,82.4481 177.065,87.1147 179.5,91.5 Z"/></g>
<g><path style="opacity:0.998" fill="#dbaf9b" d="M 50.5,80.5 C 50.5405,83.8806 50.2071,87.2139 49.5,90.5C 48.7784,90.9175 48.2784,91.5842 48,92.5C 47.6667,99.1667 47.3333,105.833 47,112.5C 46.6174,111.944 46.1174,111.611 45.5,111.5C 43.329,109.5 40.9957,107.666 38.5,106C 36.8333,105.333 35.1667,105.333 33.5,106C 37.4701,108.131 40.1367,111.298 41.5,115.5C 41.7947,117.735 41.4614,119.735 40.5,121.5C 40.2223,116.89 38.2223,113.223 34.5,110.5C 33.8333,110.833 33.1667,111.167 32.5,111.5C 31.9432,109.668 30.9432,108.335 29.5,107.5C 29.9528,106.542 30.6195,105.708 31.5,105C 30.287,102.313 29.6203,99.4802 29.5,96.5C 29.3337,89.825 29.5004,83.1583 30,76.5C 30.3173,78.3008 30.984,78.6341 32,77.5C 37.9734,79.6117 43.8068,81.945 49.5,84.5C 49.2322,82.901 49.5655,81.5676 50.5,80.5 Z"/></g>
<g><path style="opacity:1" fill="#321d1b" d="M 97.5,107.5 C 95.8523,106.19 94.1856,104.857 92.5,103.5C 91.3744,104.808 91.3744,106.142 92.5,107.5C 90.1667,107.5 87.8333,107.5 85.5,107.5C 83.5891,107.426 82.4224,106.426 82,104.5C 81.5045,102.527 81.3379,100.527 81.5,98.5C 78.6146,98.1936 75.9479,98.5269 73.5,99.5C 67.4566,100.552 65.1233,104.219 66.5,110.5C 65.5,110.5 64.5,110.5 63.5,110.5C 62.9388,107.96 63.6055,105.46 65.5,103C 59.6243,104.659 57.9576,108.492 60.5,114.5C 55.8243,110.824 55.4909,106.824 59.5,102.5C 71.7159,92.009 83.8825,92.009 96,102.5C 97.0086,104.025 97.5086,105.692 97.5,107.5 Z"/></g>
<g><path style="opacity:1" fill="#f5ddc8" d="M 160.5,76.5 C 160.5,80.1667 160.5,83.8333 160.5,87.5C 159.67,96.324 159.17,105.324 159,114.5C 158.667,113.833 158.333,113.167 158,112.5C 156.275,113.464 154.441,114.131 152.5,114.5C 153.11,113.609 153.443,112.609 153.5,111.5C 155.047,110.232 156.047,108.565 156.5,106.5C 154.443,97.1388 148.443,92.4721 138.5,92.5C 130.537,92.7963 125.537,96.7963 123.5,104.5C 122.732,103.737 122.232,102.737 122,101.5C 120.941,105.612 118.441,106.945 114.5,105.5C 108.438,106.551 102.771,107.884 97.5,109.5C 97.5,108.833 97.5,108.167 97.5,107.5C 97.5086,105.692 97.0086,104.025 96,102.5C 83.8825,92.009 71.7159,92.009 59.5,102.5C 58.375,101.652 58.375,100.652 59.5,99.5C 62.2028,97.8193 64.8695,96.1526 67.5,94.5C 73.4549,93.6365 79.4549,93.3032 85.5,93.5C 89.4921,95.83 93.4921,98.1633 97.5,100.5C 103.678,102.827 110.011,102.994 116.5,101C 119.666,98.198 122.499,95.0313 125,91.5C 125.671,92.2524 126.504,92.5858 127.5,92.5C 125.891,93.8979 125.058,95.5646 125,97.5C 128.281,93.5415 132.281,90.8748 137,89.5C 141.636,90.1234 146.136,90.9567 150.5,92C 143.578,85.32 136.244,84.82 128.5,90.5C 127.972,89.2794 127.305,88.1127 126.5,87C 127.167,86.6667 127.833,86.3333 128.5,86C 126.803,85.6155 125.137,85.7822 123.5,86.5C 123.973,85.0937 124.973,84.427 126.5,84.5C 134.603,82.3738 142.77,82.0404 151,83.5C 151.585,82.0024 151.085,81.0024 149.5,80.5C 149.611,79.8826 149.944,79.3826 150.5,79C 153.947,78.4715 157.281,77.6382 160.5,76.5 Z"/></g>
<g><path style="opacity:1" fill="#321917" d="M 156.5,106.5 C 150.518,97.5119 142.518,94.5119 132.5,97.5C 132.167,97.5 131.833,97.5 131.5,97.5C 126.411,99.93 124.411,103.93 125.5,109.5C 124.833,109.5 124.167,109.5 123.5,109.5C 123.5,107.833 123.5,106.167 123.5,104.5C 125.537,96.7963 130.537,92.7963 138.5,92.5C 148.443,92.4721 154.443,97.1388 156.5,106.5 Z"/></g>
<g><path style="opacity:1" fill="#866358" d="M 49.5,90.5 C 48.6602,99.1384 48.3268,107.805 48.5,116.5C 47.1103,115.101 46.1103,113.434 45.5,111.5C 46.1174,111.611 46.6174,111.944 47,112.5C 47.3333,105.833 47.6667,99.1667 48,92.5C 48.2784,91.5842 48.7784,90.9175 49.5,90.5 Z"/></g>
<g><path style="opacity:0.012" fill="#3d201c" d="M 26.5,97.5 C 26.8333,97.5 27.1667,97.5 27.5,97.5C 27.1667,104.167 26.8333,104.167 26.5,97.5 Z"/></g>
<g><path style="opacity:1" fill="#e3e0da" d="M 131.5,97.5 C 132.206,99.6716 133.206,101.672 134.5,103.5C 134.984,106.788 133.984,109.455 131.5,111.5C 129.142,111.747 127.142,111.081 125.5,109.5C 124.411,103.93 126.411,99.93 131.5,97.5 Z"/></g>
<g><path style="opacity:1" fill="#9a8a85" d="M 156.5,106.5 C 156.047,108.565 155.047,110.232 153.5,111.5C 154.208,105.814 151.541,102.147 145.5,100.5C 143.54,98.5159 141.207,97.6826 138.5,98C 142.716,99.6125 143.716,102.446 141.5,106.5C 138.329,104.481 136.996,101.481 137.5,97.5C 135.833,97.5 134.167,97.5 132.5,97.5C 142.518,94.5119 150.518,97.5119 156.5,106.5 Z"/></g>
<g><path style="opacity:1" fill="#50413d" d="M 145.5,100.5 C 147.312,102.461 148.312,104.794 148.5,107.5C 145.941,107.802 143.607,107.468 141.5,106.5C 143.716,102.446 142.716,99.6125 138.5,98C 141.207,97.6826 143.54,98.5159 145.5,100.5 Z"/></g>
<g><path style="opacity:1" fill="#f2efee" d="M 145.5,100.5 C 151.541,102.147 154.208,105.814 153.5,111.5C 153.443,112.609 153.11,113.609 152.5,114.5C 152.167,115.167 151.833,115.833 151.5,116.5C 146.029,124.88 138.696,127.213 129.5,123.5C 129.5,123.167 129.5,122.833 129.5,122.5C 130.833,122.5 132.167,122.5 133.5,122.5C 135.5,122.5 137.5,122.5 139.5,122.5C 144.259,120.741 147.259,117.408 148.5,112.5C 148.5,110.833 148.5,109.167 148.5,107.5C 148.312,104.794 147.312,102.461 145.5,100.5 Z"/></g>
<g><path style="opacity:1" fill="#f5f1e4" d="M 73.5,99.5 C 75.7727,99.9568 77.106,101.29 77.5,103.5C 78.2283,109.092 75.895,112.092 70.5,112.5C 68.9382,112.267 67.6049,111.6 66.5,110.5C 65.1233,104.219 67.4566,100.552 73.5,99.5 Z"/></g>
<g><path style="opacity:1" fill="#beb2ae" d="M 63.5,110.5 C 63.5,112.167 63.5,113.833 63.5,115.5C 64.6895,119.026 66.6895,122.026 69.5,124.5C 67.9382,124.267 66.6049,123.6 65.5,122.5C 63.8224,119.805 62.1558,117.139 60.5,114.5C 57.9576,108.492 59.6243,104.659 65.5,103C 63.6055,105.46 62.9388,107.96 63.5,110.5 Z"/></g>
<g><path style="opacity:1" fill="#f2db68" d="M 73.5,99.5 C 75.9479,98.5269 78.6146,98.1936 81.5,98.5C 81.3379,100.527 81.5045,102.527 82,104.5C 82.4224,106.426 83.5891,107.426 85.5,107.5C 87.6074,108.468 89.9407,108.802 92.5,108.5C 92.5,110.167 92.5,111.833 92.5,113.5C 90.0504,113.298 87.717,113.631 85.5,114.5C 83.8356,113.051 83.0023,111.051 83,108.5C 81.6439,107.62 80.1439,107.286 78.5,107.5C 78.7678,105.901 78.4345,104.568 77.5,103.5C 77.106,101.29 75.7727,99.9568 73.5,99.5 Z"/></g>
<g><path style="opacity:1" fill="#f7d9c4" d="M 123.5,104.5 C 123.5,106.167 123.5,107.833 123.5,109.5C 123.5,111.167 123.5,112.833 123.5,114.5C 124.381,118.042 126.381,120.709 129.5,122.5C 129.5,122.833 129.5,123.167 129.5,123.5C 127.929,122.803 126.429,122.47 125,122.5C 124.727,124.101 124.227,125.601 123.5,127C 124.227,128.399 124.727,129.899 125,131.5C 125.667,127.5 126.333,127.5 127,131.5C 130.122,134.468 133.455,137.134 137,139.5C 137.667,140.833 137.667,142.167 137,143.5C 132.217,146.37 127.383,148.037 122.5,148.5C 123.122,141.836 123.288,135.169 123,128.5C 122.107,127.919 121.107,127.585 120,127.5C 111.19,128.263 102.357,128.763 93.5,129C 91.9635,135.143 92.6301,140.976 95.5,146.5C 95.8333,148.5 96.1667,150.5 96.5,152.5C 92.7802,152.436 89.1135,151.936 85.5,151C 77.3921,146.614 76.7254,140.947 83.5,134C 82.9056,133.536 82.2389,133.369 81.5,133.5C 80.2502,133.423 79.4169,132.756 79,131.5C 78.1612,132.624 76.9945,133.291 75.5,133.5C 72.1738,132.953 68.8404,132.453 65.5,132C 69.7835,131.232 73.7835,130.066 77.5,128.5C 89.9753,128.359 96.642,122.026 97.5,109.5C 102.771,107.884 108.438,106.551 114.5,105.5C 118.441,106.945 120.941,105.612 122,101.5C 122.232,102.737 122.732,103.737 123.5,104.5 Z"/></g>
<g><path style="opacity:0.016" fill="#553530" d="M 26.5,108.5 C 26.1667,108.5 25.8333,108.5 25.5,108.5C 25.8333,105.833 26.1667,105.833 26.5,108.5 Z"/></g>
<g><path style="opacity:1" fill="#faf39f" d="M 134.5,103.5 C 135.404,104.209 135.737,105.209 135.5,106.5C 136.822,106.33 137.989,106.663 139,107.5C 140.833,113.667 138.667,115.833 132.5,114C 131.748,113.329 131.414,112.496 131.5,111.5C 133.984,109.455 134.984,106.788 134.5,103.5 Z"/></g>
<g><path style="opacity:0.008" fill="#5e3631" d="M 25.5,108.5 C 25.631,109.239 25.4643,109.906 25,110.5C 24.3083,109.563 24.475,108.897 25.5,108.5 Z"/></g>
<g><path style="opacity:1" fill="#5f504d" d="M 148.5,112.5 C 147.259,117.408 144.259,120.741 139.5,122.5C 139.5,121.167 139.5,119.833 139.5,118.5C 140.833,118.5 142.167,118.5 143.5,118.5C 143.634,116.708 143.301,115.042 142.5,113.5C 144.265,112.539 146.265,112.205 148.5,112.5 Z"/></g>
<g><path style="opacity:1" fill="#f7dc60" d="M 63.5,110.5 C 64.5,110.5 65.5,110.5 66.5,110.5C 67.6049,111.6 68.9382,112.267 70.5,112.5C 72.5315,113.478 74.1982,114.978 75.5,117C 77.7695,117.758 79.9361,117.591 82,116.5C 82.21,118.058 82.71,119.391 83.5,120.5C 83.5,120.833 83.5,121.167 83.5,121.5C 83.5,122.5 83.5,123.5 83.5,124.5C 82.609,125.11 81.609,125.443 80.5,125.5C 79.1667,125.5 77.8333,125.5 76.5,125.5C 76.2965,116.974 71.9632,113.641 63.5,115.5C 63.5,113.833 63.5,112.167 63.5,110.5 Z"/></g>
<g><path style="opacity:1" fill="#f5de6b" d="M 131.5,97.5 C 131.833,97.5 132.167,97.5 132.5,97.5C 134.167,97.5 135.833,97.5 137.5,97.5C 136.996,101.481 138.329,104.481 141.5,106.5C 143.607,107.468 145.941,107.802 148.5,107.5C 148.5,109.167 148.5,110.833 148.5,112.5C 146.265,112.205 144.265,112.539 142.5,113.5C 140.241,114.344 139.241,116.011 139.5,118.5C 139.5,119.833 139.5,121.167 139.5,122.5C 137.5,122.5 135.5,122.5 133.5,122.5C 133.509,115.853 130.175,113.186 123.5,114.5C 123.5,112.833 123.5,111.167 123.5,109.5C 124.167,109.5 124.833,109.5 125.5,109.5C 127.142,111.081 129.142,111.747 131.5,111.5C 131.414,112.496 131.748,113.329 132.5,114C 138.667,115.833 140.833,113.667 139,107.5C 137.989,106.663 136.822,106.33 135.5,106.5C 135.737,105.209 135.404,104.209 134.5,103.5C 133.206,101.672 132.206,99.6716 131.5,97.5 Z"/></g>
<g><path style="opacity:0.012" fill="#2a1513" d="M 23.5,112.5 C 24.6378,115.304 24.8045,118.304 24,121.5C 23.502,118.518 23.3354,115.518 23.5,112.5 Z"/></g>
<g><path style="opacity:1" fill="#faf199" d="M 77.5,103.5 C 78.4345,104.568 78.7678,105.901 78.5,107.5C 80.1439,107.286 81.6439,107.62 83,108.5C 83.0023,111.051 83.8356,113.051 85.5,114.5C 85.5,114.833 85.5,115.167 85.5,115.5C 83.7868,116.635 83.1201,118.302 83.5,120.5C 82.71,119.391 82.21,118.058 82,116.5C 79.9361,117.591 77.7695,117.758 75.5,117C 74.1982,114.978 72.5315,113.478 70.5,112.5C 75.895,112.092 78.2283,109.092 77.5,103.5 Z"/></g>
<g><path style="opacity:1" fill="#695952" d="M 85.5,107.5 C 87.8333,107.5 90.1667,107.5 92.5,107.5C 94.0505,112.096 93.2172,116.429 90,120.5C 88.3621,122.734 86.1955,124.067 83.5,124.5C 83.5,123.5 83.5,122.5 83.5,121.5C 86.2431,121.923 87.5765,120.756 87.5,118C 87.3158,116.624 86.6491,115.791 85.5,115.5C 85.5,115.167 85.5,114.833 85.5,114.5C 87.717,113.631 90.0504,113.298 92.5,113.5C 92.5,111.833 92.5,110.167 92.5,108.5C 89.9407,108.802 87.6074,108.468 85.5,107.5 Z"/></g>
<g><path style="opacity:1" fill="#63524f" d="M 123.5,114.5 C 130.175,113.186 133.509,115.853 133.5,122.5C 132.167,122.5 130.833,122.5 129.5,122.5C 126.381,120.709 124.381,118.042 123.5,114.5 Z"/></g>
<g><path style="opacity:1" fill="#e3e0de" d="M 142.5,113.5 C 143.301,115.042 143.634,116.708 143.5,118.5C 142.167,118.5 140.833,118.5 139.5,118.5C 139.241,116.011 140.241,114.344 142.5,113.5 Z"/></g>
<g><path style="opacity:1" fill="#64554f" d="M 63.5,115.5 C 71.9632,113.641 76.2965,116.974 76.5,125.5C 77.8333,125.5 79.1667,125.5 80.5,125.5C 79.7261,126.147 78.7261,126.48 77.5,126.5C 74.7666,126.032 72.1,125.365 69.5,124.5C 66.6895,122.026 64.6895,119.026 63.5,115.5 Z"/></g>
<g><path style="opacity:1" fill="#dfdbdb" d="M 85.5,115.5 C 86.6491,115.791 87.3158,116.624 87.5,118C 87.5765,120.756 86.2431,121.923 83.5,121.5C 83.5,121.167 83.5,120.833 83.5,120.5C 83.1201,118.302 83.7868,116.635 85.5,115.5 Z"/></g>
<g><path style="opacity:0.999" fill="#e9bcaf" d="M 160.5,87.5 C 160.196,102.034 160.863,116.367 162.5,130.5C 161.905,133.317 160.572,135.65 158.5,137.5C 157.094,137.973 156.427,138.973 156.5,140.5C 156.5,140.833 156.5,141.167 156.5,141.5C 155.833,141.5 155.5,141.833 155.5,142.5C 154.833,142.5 154.5,142.833 154.5,143.5C 153.833,143.5 153.5,143.833 153.5,144.5C 152.391,144.557 151.391,144.89 150.5,145.5C 148.973,145.427 147.973,146.094 147.5,147.5C 146.508,147.328 145.842,147.662 145.5,148.5C 144.508,148.328 143.842,148.662 143.5,149.5C 141.833,150.167 140.167,150.833 138.5,151.5C 140.076,149.269 142.243,147.603 145,146.5C 149.501,140.496 151.168,133.829 150,126.5C 151.692,122.141 154.692,119.141 159,117.5C 159.333,122.167 159.667,126.833 160,131.5C 160.829,126.467 160.662,121.467 159.5,116.5C 156.549,115.636 153.883,115.636 151.5,116.5C 151.833,115.833 152.167,115.167 152.5,114.5C 154.441,114.131 156.275,113.464 158,112.5C 158.333,113.167 158.667,113.833 159,114.5C 159.17,105.324 159.67,96.324 160.5,87.5 Z"/></g>
<g><path style="opacity:1" fill="#f4f1ef" d="M 97.5,107.5 C 97.5,108.167 97.5,108.833 97.5,109.5C 96.642,122.026 89.9753,128.359 77.5,128.5C 74.279,128.104 71.6123,126.771 69.5,124.5C 72.1,125.365 74.7666,126.032 77.5,126.5C 78.7261,126.48 79.7261,126.147 80.5,125.5C 81.609,125.443 82.609,125.11 83.5,124.5C 86.1955,124.067 88.3621,122.734 90,120.5C 93.2172,116.429 94.0505,112.096 92.5,107.5C 91.3744,106.142 91.3744,104.808 92.5,103.5C 94.1856,104.857 95.8523,106.19 97.5,107.5 Z"/></g>
<g><path style="opacity:0.008" fill="#896b65" d="M 25.5,122.5 C 25.5,123.5 25.5,124.5 25.5,125.5C 24.1667,124.5 24.1667,123.5 25.5,122.5 Z"/></g>
<g><path style="opacity:1" fill="#f7d2c4" d="M 138.5,151.5 C 136.463,152.846 134.463,154.18 132.5,155.5C 132.158,156.338 131.492,156.672 130.5,156.5C 128.847,156.66 127.514,157.326 126.5,158.5C 125.167,158.833 123.833,159.167 122.5,159.5C 122.167,159.5 121.833,159.5 121.5,159.5C 126.437,156.694 131.437,153.861 136.5,151C 131.653,151.085 126.82,151.585 122,152.5C 121.601,152.272 121.435,151.938 121.5,151.5C 121.263,150.209 121.596,149.209 122.5,148.5C 127.383,148.037 132.217,146.37 137,143.5C 137.667,142.167 137.667,140.833 137,139.5C 133.455,137.134 130.122,134.468 127,131.5C 126.333,127.5 125.667,127.5 125,131.5C 124.727,129.899 124.227,128.399 123.5,127C 124.227,125.601 124.727,124.101 125,122.5C 126.429,122.47 127.929,122.803 129.5,123.5C 138.696,127.213 146.029,124.88 151.5,116.5C 153.883,115.636 156.549,115.636 159.5,116.5C 160.662,121.467 160.829,126.467 160,131.5C 159.667,126.833 159.333,122.167 159,117.5C 154.692,119.141 151.692,122.141 150,126.5C 151.168,133.829 149.501,140.496 145,146.5C 142.243,147.603 140.076,149.269 138.5,151.5 Z"/></g>
<g><path style="opacity:0.232" fill="#f7db12" d="M 168.5,186.5 C 168.5,185.833 168.167,185.5 167.5,185.5C 166.833,184.167 165.833,183.167 164.5,182.5C 162.642,180.117 161.308,177.45 160.5,174.5C 160.297,172.956 159.63,171.622 158.5,170.5C 158.942,169.261 159.609,168.261 160.5,167.5C 161.627,168.122 162.627,168.955 163.5,170C 164.833,170.667 166.167,170.667 167.5,170C 169.64,165.711 172.307,161.878 175.5,158.5C 176.613,157.054 176.78,155.387 176,153.5C 171.984,149.962 168.817,145.795 166.5,141C 165.5,140.333 164.5,140.333 163.5,141C 161.934,143.326 160.268,145.492 158.5,147.5C 158.167,147.5 157.833,147.5 157.5,147.5C 156.597,145.38 155.263,145.046 153.5,146.5C 153.5,145.833 153.5,145.167 153.5,144.5C 154.167,144.5 154.5,144.167 154.5,143.5C 155.167,143.5 155.5,143.167 155.5,142.5C 156.167,142.5 156.5,142.167 156.5,141.5C 157.167,141.5 157.5,141.167 157.5,140.5C 158.11,139.609 158.443,138.609 158.5,137.5C 160.572,135.65 161.905,133.317 162.5,130.5C 162.5,129.833 162.5,129.167 162.5,128.5C 163.323,125.023 163.823,121.356 164,117.5C 164.497,120.146 164.664,122.813 164.5,125.5C 166.582,125.472 168.416,126.139 170,127.5C 171.495,134.334 174.328,140.501 178.5,146C 182.158,147.443 185.325,149.609 188,152.5C 188.79,155.634 188.457,158.634 187,161.5C 177.003,165.801 171.669,173.468 171,184.5C 170.292,185.381 169.458,186.047 168.5,186.5 Z"/></g>
<g><path style="opacity:0.999" fill="#f4d5c2" d="M 45.5,111.5 C 46.1103,113.434 47.1103,115.101 48.5,116.5C 52.6133,124.477 53.28,132.643 50.5,141C 51.056,141.383 51.3893,141.883 51.5,142.5C 50.8333,142.5 50.1667,142.5 49.5,142.5C 48.5,142.167 47.8333,141.5 47.5,140.5C 47.6309,139.624 47.2975,138.957 46.5,138.5C 43.5047,139.724 40.5047,139.724 37.5,138.5C 32.821,133.791 29.1543,128.457 26.5,122.5C 25.867,117.032 26.867,112.032 29.5,107.5C 30.9432,108.335 31.9432,109.668 32.5,111.5C 33.1667,111.167 33.8333,110.833 34.5,110.5C 38.2223,113.223 40.2223,116.89 40.5,121.5C 39.8895,124.961 41.0561,127.628 44,129.5C 44.3333,131.167 44.6667,132.833 45,134.5C 45.9435,133.737 46.4435,132.737 46.5,131.5C 45.0496,128.878 43.383,126.378 41.5,124C 42.7321,121.017 42.7321,118.184 41.5,115.5C 40.1367,111.298 37.4701,108.131 33.5,106C 35.1667,105.333 36.8333,105.333 38.5,106C 40.9957,107.666 43.329,109.5 45.5,111.5 Z"/></g>
<g><path style="opacity:1" fill="#906256" d="M 41.5,115.5 C 42.7321,118.184 42.7321,121.017 41.5,124C 43.383,126.378 45.0496,128.878 46.5,131.5C 46.4435,132.737 45.9435,133.737 45,134.5C 44.6667,132.833 44.3333,131.167 44,129.5C 41.0561,127.628 39.8895,124.961 40.5,121.5C 41.4614,119.735 41.7947,117.735 41.5,115.5 Z"/></g>
<g><path style="opacity:0.012" fill="#1d0705" d="M 26.5,128.5 C 26.8333,128.5 27.1667,128.5 27.5,128.5C 27.3147,129.17 26.9813,129.17 26.5,128.5 Z"/></g>
<g><path style="opacity:0.211" fill="#fde105" d="M 28.5,132.5 C 28.5,132.833 28.5,133.167 28.5,133.5C 28.5,134.167 28.8333,134.5 29.5,134.5C 30.3406,137.519 31.3406,140.519 32.5,143.5C 35.5202,146.355 38.6868,149.021 42,151.5C 44,154.5 44,157.5 42,160.5C 35.004,164.489 31.004,170.489 30,178.5C 27.0913,181.394 23.5913,182.227 19.5,181C 17.3368,176.517 15.1702,172.017 13,167.5C 10.5122,165.257 7.84556,163.257 5,161.5C 4.33333,158.167 4.33333,154.833 5,151.5C 11.9724,147.51 16.3058,141.51 18,133.5C 21.2234,129.983 24.7234,129.65 28.5,132.5 Z"/></g>
<g><path style="opacity:1" fill="#e77a86" d="M 111.5,130.5 C 112.122,131.627 112.955,132.627 114,133.5C 114.667,134.833 114.667,136.167 114,137.5C 109,141.833 104,146.167 99,150.5C 98.5172,151.448 98.3505,152.448 98.5,153.5C 97.8333,153.167 97.1667,152.833 96.5,152.5C 96.1667,150.5 95.8333,148.5 95.5,146.5C 94.7803,140.862 94.447,135.196 94.5,129.5C 100.145,130.134 105.811,130.468 111.5,130.5 Z"/></g>
<g><path style="opacity:0.008" fill="#2d2321" d="M 26.5,122.5 C 29.1543,128.457 32.821,133.791 37.5,138.5C 36.8501,138.804 36.1835,139.137 35.5,139.5C 34.9447,137.352 33.4447,135.352 31,133.5C 30.6174,134.056 30.1174,134.389 29.5,134.5C 28.8333,134.5 28.5,134.167 28.5,133.5C 28.5,133.167 28.5,132.833 28.5,132.5C 29.4427,130.999 29.1094,129.665 27.5,128.5C 27.1667,125.833 26.8333,125.833 26.5,128.5C 25.596,127.791 25.2627,126.791 25.5,125.5C 26.404,124.791 26.7373,123.791 26.5,122.5 Z"/></g>
<g><path style="opacity:1" fill="#97484b" d="M 122.5,148.5 C 121.596,149.209 121.263,150.209 121.5,151.5C 121.167,151.5 120.833,151.5 120.5,151.5C 120.815,147.629 120.482,143.962 119.5,140.5C 118.64,135.647 115.973,132.314 111.5,130.5C 105.811,130.468 100.145,130.134 94.5,129.5C 94.447,135.196 94.7803,140.862 95.5,146.5C 92.6301,140.976 91.9635,135.143 93.5,129C 102.357,128.763 111.19,128.263 120,127.5C 121.107,127.585 122.107,127.919 123,128.5C 123.288,135.169 123.122,141.836 122.5,148.5 Z"/></g>
<g><path style="opacity:0.2" fill="#32231f" d="M 158.5,137.5 C 158.443,138.609 158.11,139.609 157.5,140.5C 157.167,140.5 156.833,140.5 156.5,140.5C 156.427,138.973 157.094,137.973 158.5,137.5 Z"/></g>
<g><path style="opacity:0.992" fill="#443934" d="M 37.5,138.5 C 40.5047,139.724 43.5047,139.724 46.5,138.5C 47.2975,138.957 47.6309,139.624 47.5,140.5C 46.5084,140.328 45.8417,140.662 45.5,141.5C 43.139,141.326 40.8056,140.993 38.5,140.5C 38.1667,139.833 37.8333,139.167 37.5,138.5 Z"/></g>
<g><path style="opacity:0.016" fill="#1b0000" d="M 38.5,140.5 C 38.5,140.833 38.5,141.167 38.5,141.5C 37.8299,141.019 37.8299,140.685 38.5,140.5 Z"/></g>
<g><path style="opacity:0.008" fill="#432d29" d="M 38.5,141.5 C 39.2389,141.369 39.9056,141.536 40.5,142C 39.5632,142.692 38.8966,142.525 38.5,141.5 Z"/></g>
<g><path style="opacity:0.012" fill="#301712" d="M 45.5,141.5 C 46.1667,141.5 46.5,141.833 46.5,142.5C 46.1667,142.167 45.8333,141.833 45.5,141.5 Z"/></g>
<g><path style="opacity:0.008" fill="#271815" d="M 41.5,143.5 C 42.2506,142.427 43.2506,142.26 44.5,143C 43.552,143.483 42.552,143.649 41.5,143.5 Z"/></g>
<g><path style="opacity:0.008" fill="#000000" d="M 46.5,142.5 C 47.1667,142.5 47.5,142.833 47.5,143.5C 47.1667,143.167 46.8333,142.833 46.5,142.5 Z"/></g>
<g><path style="opacity:0.008" fill="#000000" d="M 47.5,143.5 C 48.8333,144.167 48.8333,144.167 47.5,143.5 Z"/></g>
<g><path style="opacity:1" fill="#f7a2a2" d="M 111.5,130.5 C 115.973,132.314 118.64,135.647 119.5,140.5C 119.056,144.989 118.889,149.323 119,153.5C 117.184,155.441 115.184,156.108 113,155.5C 111.812,156.563 111.312,157.897 111.5,159.5C 106.276,159.387 101.943,157.387 98.5,153.5C 98.3505,152.448 98.5172,151.448 99,150.5C 104,146.167 109,141.833 114,137.5C 114.667,136.167 114.667,134.833 114,133.5C 112.955,132.627 112.122,131.627 111.5,130.5 Z"/></g>
<g><path style="opacity:0.996" fill="#f9dd71" d="M 175.5,158.5 C 175.149,154.299 172.983,151.299 169,149.5C 168.293,147.919 167.46,146.419 166.5,145C 165.5,144.333 164.5,144.333 163.5,145C 162.295,146.376 160.962,147.542 159.5,148.5C 158.833,148.5 158.5,148.167 158.5,147.5C 160.268,145.492 161.934,143.326 163.5,141C 164.5,140.333 165.5,140.333 166.5,141C 168.817,145.795 171.984,149.962 176,153.5C 176.78,155.387 176.613,157.054 175.5,158.5 Z"/></g>
<g><path style="opacity:0.502" fill="#302322" d="M 49.5,142.5 C 50.1667,142.5 50.8333,142.5 51.5,142.5C 52.5,143.833 53.5,145.167 54.5,146.5C 52.2512,145.92 50.5846,144.587 49.5,142.5 Z"/></g>
<g><path style="opacity:0.997" fill="#f8c0ad" d="M 65.5,122.5 C 66.6049,123.6 67.9382,124.267 69.5,124.5C 71.6123,126.771 74.279,128.104 77.5,128.5C 73.7835,130.066 69.7835,131.232 65.5,132C 68.8404,132.453 72.1738,132.953 75.5,133.5C 76.9945,133.291 78.1612,132.624 79,131.5C 79.4169,132.756 80.2502,133.423 81.5,133.5C 79.4424,135.927 77.6091,138.593 76,141.5C 74.877,144.956 75.7104,147.79 78.5,150C 76.5826,149.973 74.916,149.139 73.5,147.5C 72.6919,147.808 72.0253,148.308 71.5,149C 74.9335,151.435 78.6002,153.435 82.5,155C 76.5961,154.437 70.9295,152.771 65.5,150C 64.1667,149.333 64.1667,148.667 65.5,148C 58.5275,148.585 57.1942,146.418 61.5,141.5C 60.2814,138.031 58.6148,134.365 56.5,130.5C 58.1027,126.208 61.1027,123.541 65.5,122.5 Z"/></g>
<g><path style="opacity:0.016" fill="#110908" d="M 150.5,145.5 C 150.167,146.167 149.833,146.833 149.5,147.5C 148.833,147.5 148.167,147.5 147.5,147.5C 147.973,146.094 148.973,145.427 150.5,145.5 Z"/></g>
<g><path style="opacity:0.443" fill="#251918" d="M 56.5,147.5 C 58.0269,147.427 59.0269,148.094 59.5,149.5C 57.9731,149.573 56.9731,148.906 56.5,147.5 Z"/></g>
<g><path style="opacity:1" fill="#fbeeba" d="M 175.5,158.5 C 174.833,158.5 174.167,158.5 173.5,158.5C 173.657,157.127 173.49,155.793 173,154.5C 170.515,153.013 168.348,151.179 166.5,149C 164.505,148.387 162.838,148.887 161.5,150.5C 160.5,150.167 159.833,149.5 159.5,148.5C 160.962,147.542 162.295,146.376 163.5,145C 164.5,144.333 165.5,144.333 166.5,145C 167.46,146.419 168.293,147.919 169,149.5C 172.983,151.299 175.149,154.299 175.5,158.5 Z"/></g>
<g><path style="opacity:0.137" fill="#36201f" d="M 61.5,150.5 C 63.153,150.66 64.4863,151.326 65.5,152.5C 65.8333,153.833 66.1667,153.833 66.5,152.5C 69.6207,152.736 71.954,154.069 73.5,156.5C 72.6733,159.132 71.84,161.798 71,164.5C 70.8724,161.486 70.8724,158.486 71,155.5C 68.4598,154.124 66.4598,154.79 65,157.5C 65.6692,154.199 64.1692,152.699 60.5,153C 56.6919,156.776 54.6919,161.276 54.5,166.5C 50.9769,168.873 48.9769,172.207 48.5,176.5C 45.6034,181.167 43.2701,186.167 41.5,191.5C 41.1667,191.5 40.8333,191.5 40.5,191.5C 40.5,190.5 40.5,189.5 40.5,188.5C 42.2927,186.574 43.2927,184.241 43.5,181.5C 45.6246,178.912 46.9579,175.912 47.5,172.5C 48.8792,169.614 50.8792,167.114 53.5,165C 53.6474,158.962 56.3141,154.129 61.5,150.5 Z"/></g>
<g><path style="opacity:1" fill="#faf6e6" d="M 173.5,158.5 C 171.055,161.21 168.722,164.044 166.5,167C 164.718,167.122 163.052,166.622 161.5,165.5C 165.486,160.539 165.486,155.539 161.5,150.5C 162.838,148.887 164.505,148.387 166.5,149C 168.348,151.179 170.515,153.013 173,154.5C 173.49,155.793 173.657,157.127 173.5,158.5 Z"/></g>
<g><path style="opacity:0.678" fill="#372323" d="M 157.5,147.5 C 154.978,147.128 152.978,147.961 151.5,150C 154.192,151.88 155.359,154.38 155,157.5C 153.615,152.601 150.448,150.267 145.5,150.5C 146.342,153.498 146.842,156.498 147,159.5C 146.069,157.541 145.236,155.541 144.5,153.5C 141.049,153.012 137.882,154.012 135,156.5C 133.311,160.56 131.144,164.227 128.5,167.5C 128.431,164.916 127.265,162.916 125,161.5C 124.601,161.728 124.435,162.062 124.5,162.5C 123.833,162.167 123.167,161.833 122.5,161.5C 122.5,160.833 122.5,160.167 122.5,159.5C 123.833,159.167 125.167,158.833 126.5,158.5C 129.901,161.569 132.235,160.902 133.5,156.5C 133.376,155.893 133.043,155.56 132.5,155.5C 134.463,154.18 136.463,152.846 138.5,151.5C 140.167,150.833 141.833,150.167 143.5,149.5C 143.842,148.662 144.508,148.328 145.5,148.5C 145.842,147.662 146.508,147.328 147.5,147.5C 148.167,148.833 148.833,148.833 149.5,147.5C 150.962,148.471 152.295,148.138 153.5,146.5C 155.263,145.046 156.597,145.38 157.5,147.5 Z"/></g>
<g><path style="opacity:1" fill="#bc7b77" d="M 119.5,140.5 C 120.482,143.962 120.815,147.629 120.5,151.5C 119.538,157.405 116.038,160.405 110,160.5C 104.579,160.549 100.745,158.216 98.5,153.5C 101.943,157.387 106.276,159.387 111.5,159.5C 111.312,157.897 111.812,156.563 113,155.5C 115.184,156.108 117.184,155.441 119,153.5C 118.889,149.323 119.056,144.989 119.5,140.5 Z"/></g>
<g><path style="opacity:0.302" fill="#1f1717" d="M 130.5,156.5 C 129.713,158.104 128.38,158.771 126.5,158.5C 127.514,157.326 128.847,156.66 130.5,156.5 Z"/></g>
<g><path style="opacity:0.999" fill="#f3deca" d="M 73.5,156.5 C 74.8333,156.5 76.1667,156.5 77.5,156.5C 77.3367,158.857 77.5034,161.19 78,163.5C 78.3603,161.579 79.1936,159.912 80.5,158.5C 82.5486,159.882 84.2153,161.548 85.5,163.5C 88.0461,167.259 90.0461,171.259 91.5,175.5C 91.9628,178.33 92.6295,180.997 93.5,183.5C 93.5,186.167 93.5,188.833 93.5,191.5C 91.1667,191.5 88.8333,191.5 86.5,191.5C 86.6631,184.319 85.6631,177.319 83.5,170.5C 74.0593,170.065 64.7259,169.065 55.5,167.5C 55.5,166.833 55.1667,166.5 54.5,166.5C 54.6919,161.276 56.6919,156.776 60.5,153C 64.1692,152.699 65.6692,154.199 65,157.5C 66.4598,154.79 68.4598,154.124 71,155.5C 70.8724,158.486 70.8724,161.486 71,164.5C 71.84,161.798 72.6733,159.132 73.5,156.5 Z"/></g>
<g><path style="opacity:0.008" fill="#2e1612" d="M 51.5,159.5 C 52.525,159.897 52.6917,160.563 52,161.5C 51.5357,160.906 51.369,160.239 51.5,159.5 Z"/></g>
<g><path style="opacity:1" fill="#7f5c51" d="M 77.5,156.5 C 81.0839,156.975 84.4172,157.975 87.5,159.5C 85.8958,160.287 85.2291,161.62 85.5,163.5C 84.2153,161.548 82.5486,159.882 80.5,158.5C 79.1936,159.912 78.3603,161.579 78,163.5C 77.5034,161.19 77.3367,158.857 77.5,156.5 Z"/></g>
<g><path style="opacity:0.996" fill="#fae27c" d="M 173.5,158.5 C 174.167,158.5 174.833,158.5 175.5,158.5C 172.307,161.878 169.64,165.711 167.5,170C 166.167,170.667 164.833,170.667 163.5,170C 162.627,168.955 161.627,168.122 160.5,167.5C 160.833,166.833 161.167,166.167 161.5,165.5C 163.052,166.622 164.718,167.122 166.5,167C 168.722,164.044 171.055,161.21 173.5,158.5 Z"/></g>
<g><path style="opacity:1" fill="#967970" d="M 88.5,159.5 C 95.4405,160.823 102.44,161.823 109.5,162.5C 113.908,162.689 117.908,161.689 121.5,159.5C 121.833,159.5 122.167,159.5 122.5,159.5C 122.5,160.167 122.5,160.833 122.5,161.5C 112.868,164.092 103.202,164.092 93.5,161.5C 90.2053,160.176 88.872,161.509 89.5,165.5C 88.5386,163.735 88.2053,161.735 88.5,159.5 Z"/></g>
<g><path style="opacity:0.997" fill="#b6816c" d="M 157.5,147.5 C 157.833,147.5 158.167,147.5 158.5,147.5C 158.5,148.167 158.833,148.5 159.5,148.5C 159.833,149.5 160.5,150.167 161.5,150.5C 165.486,155.539 165.486,160.539 161.5,165.5C 161.167,166.167 160.833,166.833 160.5,167.5C 159.609,168.261 158.942,169.261 158.5,170.5C 159.63,171.622 160.297,172.956 160.5,174.5C 159.167,173.5 157.833,172.5 156.5,171.5C 156.539,170.417 156.873,169.417 157.5,168.5C 156.05,167.15 155.383,165.484 155.5,163.5C 157.479,161.832 159.812,161.166 162.5,161.5C 162.663,159.143 162.497,156.81 162,154.5C 160.25,152.266 158.75,149.932 157.5,147.5 Z"/></g>
<g><path style="opacity:0.992" fill="#f9d054" d="M 28.5,150.5 C 32.1692,152.438 33.3359,155.438 32,159.5C 29.3647,161.461 27.5314,163.961 26.5,167C 24.8333,167.667 23.1667,167.667 21.5,167C 17.978,162.562 13.6447,159.062 8.5,156.5C 17.6626,152.519 22.6626,145.519 23.5,135.5C 24.7156,140.715 26.3822,145.715 28.5,150.5 Z"/></g>
<g><path style="opacity:0.996" fill="#fdf3d5" d="M 25.5,148.5 C 26.5,149.167 27.5,149.833 28.5,150.5C 28.5,151.167 28.5,151.833 28.5,152.5C 30.1745,158.655 27.8412,161.822 21.5,162C 16.2204,157.875 16.2204,153.708 21.5,149.5C 22.6888,148.571 24.0222,148.238 25.5,148.5 Z"/></g>
<g><path style="opacity:1" fill="#fbe49d" d="M 25.5,148.5 C 24.0222,148.238 22.6888,148.571 21.5,149.5C 16.2204,153.708 16.2204,157.875 21.5,162C 27.8412,161.822 30.1745,158.655 28.5,152.5C 31.1391,153.706 31.9724,155.706 31,158.5C 28.6244,161.045 26.1244,163.378 23.5,165.5C 20.8756,163.378 18.3756,161.045 16,158.5C 15.3333,156.833 15.3333,155.167 16,153.5C 18.3997,151.1 20.7331,148.767 23,146.5C 24.301,146.639 25.1344,147.305 25.5,148.5 Z"/></g>
<g><path style="opacity:0.996" fill="#ee9581" d="M 93.5,161.5 C 93.4825,165.129 94.8158,168.129 97.5,170.5C 94.1511,169.831 91.4844,168.164 89.5,165.5C 88.872,161.509 90.2053,160.176 93.5,161.5 Z"/></g>
<g><path style="opacity:1" fill="#f3ddc9" d="M 157.5,147.5 C 158.75,149.932 160.25,152.266 162,154.5C 162.497,156.81 162.663,159.143 162.5,161.5C 159.812,161.166 157.479,161.832 155.5,163.5C 148.763,164.745 142.096,166.079 135.5,167.5C 135.5,168.5 135.5,169.5 135.5,170.5C 134.356,177.346 134.356,184.346 135.5,191.5C 132.833,191.5 130.167,191.5 127.5,191.5C 127.5,188.5 127.5,185.5 127.5,182.5C 127.221,177.405 127.555,172.405 128.5,167.5C 131.144,164.227 133.311,160.56 135,156.5C 137.882,154.012 141.049,153.012 144.5,153.5C 145.236,155.541 146.069,157.541 147,159.5C 146.842,156.498 146.342,153.498 145.5,150.5C 150.448,150.267 153.615,152.601 155,157.5C 155.359,154.38 154.192,151.88 151.5,150C 152.978,147.961 154.978,147.128 157.5,147.5 Z"/></g>
<g><path style="opacity:1" fill="#eba28d" d="M 155.5,163.5 C 155.383,165.484 156.05,167.15 157.5,168.5C 156.873,169.417 156.539,170.417 156.5,171.5C 155.478,174.522 153.478,176.522 150.5,177.5C 149.5,177.833 148.833,178.5 148.5,179.5C 146.873,181.63 145.04,183.63 143,185.5C 144.788,182.64 146.288,179.473 147.5,176C 146.4,174.977 145.067,174.477 143.5,174.5C 138.805,176.731 136.138,175.398 135.5,170.5C 135.5,169.5 135.5,168.5 135.5,167.5C 142.096,166.079 148.763,164.745 155.5,163.5 Z"/></g>
<g><path style="opacity:0.016" fill="#2a0505" d="M 47.5,172.5 C 47.1667,172.5 46.8333,172.5 46.5,172.5C 46.8333,169.833 47.1667,169.833 47.5,172.5 Z"/></g>
<g><path style="opacity:0.008" fill="#2a0802" d="M 46.5,172.5 C 46.631,173.239 46.4643,173.906 46,174.5C 45.3083,173.563 45.475,172.897 46.5,172.5 Z"/></g>
<g><path style="opacity:1" fill="#234485" d="M 54.5,166.5 C 55.1667,166.5 55.5,166.833 55.5,167.5C 59.1549,172.821 63.4882,177.487 68.5,181.5C 69.3414,183.379 69.6747,185.379 69.5,187.5C 63.3743,187.072 57.3743,185.905 51.5,184C 51.0426,183.586 50.7093,183.086 50.5,182.5C 53.7848,181.676 57.1182,181.176 60.5,181C 56.3746,179.675 52.3746,178.175 48.5,176.5C 48.9769,172.207 50.9769,168.873 54.5,166.5 Z"/></g>
<g><path style="opacity:1" fill="#f2aa95" d="M 55.5,167.5 C 64.7259,169.065 74.0593,170.065 83.5,170.5C 85.6631,177.319 86.6631,184.319 86.5,191.5C 80.8333,191.5 75.1667,191.5 69.5,191.5C 69.5,190.167 69.5,188.833 69.5,187.5C 70.1577,186.602 70.8243,185.602 71.5,184.5C 72.6199,185.833 73.9532,186.333 75.5,186C 73.4494,183.98 71.1161,182.48 68.5,181.5C 63.4882,177.487 59.1549,172.821 55.5,167.5 Z"/></g>
<g><path style="opacity:0.998" fill="#213d7a" d="M 87.5,159.5 C 87.8333,159.5 88.1667,159.5 88.5,159.5C 88.2053,161.735 88.5386,163.735 89.5,165.5C 91.4844,168.164 94.1511,169.831 97.5,170.5C 98.9303,171.537 100.597,172.204 102.5,172.5C 108.101,176.257 114.101,177.257 120.5,175.5C 122.173,174.657 123.34,173.324 124,171.5C 124.498,168.518 124.665,165.518 124.5,162.5C 124.435,162.062 124.601,161.728 125,161.5C 127.265,162.916 128.431,164.916 128.5,167.5C 127.555,172.405 127.221,177.405 127.5,182.5C 127.167,182.5 126.833,182.5 126.5,182.5C 126.489,179.999 125.822,179.832 124.5,182C 112.974,183.164 102.474,180.331 93,173.5C 92.5357,174.094 92.369,174.761 92.5,175.5C 92.1667,175.5 91.8333,175.5 91.5,175.5C 90.0461,171.259 88.0461,167.259 85.5,163.5C 85.2291,161.62 85.8958,160.287 87.5,159.5 Z"/></g>
<g><path style="opacity:0.996" fill="#d07f6b" d="M 102.5,172.5 C 108.27,174.709 114.27,175.709 120.5,175.5C 114.101,177.257 108.101,176.257 102.5,172.5 Z"/></g>
<g><path style="opacity:0.999" fill="#f6e1cc" d="M 93.5,161.5 C 103.202,164.092 112.868,164.092 122.5,161.5C 123.167,161.833 123.833,162.167 124.5,162.5C 124.665,165.518 124.498,168.518 124,171.5C 123.34,173.324 122.173,174.657 120.5,175.5C 114.27,175.709 108.27,174.709 102.5,172.5C 100.597,172.204 98.9303,171.537 97.5,170.5C 94.8158,168.129 93.4825,165.129 93.5,161.5 Z"/></g>
<g><path style="opacity:1" fill="#dac69c" d="M 156.5,171.5 C 157.833,172.5 159.167,173.5 160.5,174.5C 161.308,177.45 162.642,180.117 164.5,182.5C 164.833,183.833 165.167,185.167 165.5,186.5C 163.396,186.799 161.396,186.466 159.5,185.5C 159.977,184.522 160.643,183.689 161.5,183C 158.445,182.366 155.445,182.532 152.5,183.5C 151.262,181.786 150.595,179.786 150.5,177.5C 153.478,176.522 155.478,174.522 156.5,171.5 Z"/></g>
<g><path style="opacity:1" fill="#604943" d="M 150.5,177.5 C 150.595,179.786 151.262,181.786 152.5,183.5C 152.963,186.221 153.629,188.888 154.5,191.5C 154.167,191.5 153.833,191.5 153.5,191.5C 152.205,187.266 150.539,183.266 148.5,179.5C 148.833,178.5 149.5,177.833 150.5,177.5 Z"/></g>
<g><path style="opacity:0.997" fill="#140c13" d="M 91.5,175.5 C 91.8333,175.5 92.1667,175.5 92.5,175.5C 102.104,182.312 112.77,185.145 124.5,184C 125.416,183.722 126.082,183.222 126.5,182.5C 126.833,182.5 127.167,182.5 127.5,182.5C 127.5,185.5 127.5,188.5 127.5,191.5C 127.167,191.5 126.833,191.5 126.5,191.5C 126.5,189.5 126.5,187.5 126.5,185.5C 114.921,187.542 104.087,185.542 94,179.5C 93.51,180.793 93.3433,182.127 93.5,183.5C 92.6295,180.997 91.9628,178.33 91.5,175.5 Z"/></g>
<g><path style="opacity:0.996" fill="#3171dd" d="M 126.5,182.5 C 126.082,183.222 125.416,183.722 124.5,184C 112.77,185.145 102.104,182.312 92.5,175.5C 92.369,174.761 92.5357,174.094 93,173.5C 102.474,180.331 112.974,183.164 124.5,182C 125.822,179.832 126.489,179.999 126.5,182.5 Z"/></g>
<g><path style="opacity:0.008" fill="#291410" d="M 43.5,181.5 C 42.475,181.103 42.3083,180.437 43,179.5C 43.4643,180.094 43.631,180.761 43.5,181.5 Z"/></g>
<g><path style="opacity:1" fill="#5d403e" d="M 68.5,181.5 C 71.1161,182.48 73.4494,183.98 75.5,186C 73.9532,186.333 72.6199,185.833 71.5,184.5C 70.8243,185.602 70.1577,186.602 69.5,187.5C 69.6747,185.379 69.3414,183.379 68.5,181.5 Z"/></g>
<g><path style="opacity:1" fill="#f5b7a0" d="M 135.5,170.5 C 136.138,175.398 138.805,176.731 143.5,174.5C 145.067,174.477 146.4,174.977 147.5,176C 146.288,179.473 144.788,182.64 143,185.5C 145.04,183.63 146.873,181.63 148.5,179.5C 150.539,183.266 152.205,187.266 153.5,191.5C 147.5,191.5 141.5,191.5 135.5,191.5C 134.356,184.346 134.356,177.346 135.5,170.5 Z"/></g>
<g><path style="opacity:0.999" fill="#173265" d="M 126.5,191.5 C 115.5,191.5 104.5,191.5 93.5,191.5C 93.5,188.833 93.5,186.167 93.5,183.5C 93.3433,182.127 93.51,180.793 94,179.5C 104.087,185.542 114.921,187.542 126.5,185.5C 126.5,187.5 126.5,189.5 126.5,191.5 Z"/></g>
<g><path style="opacity:0.02" fill="#331917" d="M 164.5,182.5 C 165.833,183.167 166.833,184.167 167.5,185.5C 168.167,185.5 168.5,185.833 168.5,186.5C 168.229,188.38 168.896,189.713 170.5,190.5C 170.5,190.833 170.5,191.167 170.5,191.5C 169.833,191.5 169.167,191.5 168.5,191.5C 167.737,189.632 166.737,187.965 165.5,186.5C 165.167,185.167 164.833,183.833 164.5,182.5 Z"/></g>
<g><path style="opacity:0.008" fill="#240c08" d="M 40.5,188.5 C 39.475,188.103 39.3083,187.437 40,186.5C 40.4643,187.094 40.631,187.761 40.5,188.5 Z"/></g>
<g><path style="opacity:0.996" fill="#294a87" d="M 165.5,186.5 C 166.737,187.965 167.737,189.632 168.5,191.5C 163.833,191.5 159.167,191.5 154.5,191.5C 153.629,188.888 152.963,186.221 152.5,183.5C 155.445,182.532 158.445,182.366 161.5,183C 160.643,183.689 159.977,184.522 159.5,185.5C 161.396,186.466 163.396,186.799 165.5,186.5 Z"/></g>
<g><path style="opacity:1" fill="#dbc8a1" d="M 48.5,176.5 C 52.3746,178.175 56.3746,179.675 60.5,181C 57.1182,181.176 53.7848,181.676 50.5,182.5C 50.7093,183.086 51.0426,183.586 51.5,184C 57.3743,185.905 63.3743,187.072 69.5,187.5C 69.5,188.833 69.5,190.167 69.5,191.5C 60.1667,191.5 50.8333,191.5 41.5,191.5C 43.2701,186.167 45.6034,181.167 48.5,176.5 Z"/></g>
<g><path style="opacity:0.016" fill="#2b0600" d="M 170.5,189.5 C 171.833,190.167 171.833,190.167 170.5,189.5 Z"/></g>
<g><path style="opacity:0.008" fill="#1d0605" d="M 39.5,191.5 C 39.1667,191.5 38.8333,191.5 38.5,191.5C 38.8333,188.833 39.1667,188.833 39.5,191.5 Z"/></g>
</svg>
